<?xml version="1.0" encoding="UTF-8" standalone="no"?>
<!DOCTYPE svg PUBLIC "-//W3C//DTD SVG 1.1//EN"
 "http://www.w3.org/Graphics/SVG/1.1/DTD/svg11.dtd">
<!-- Generated by graphviz version 2.28.0 (20110507.0327)
 -->
<!-- Title: G Pages: 1 -->
<svg width="830pt" height="2564pt"
 viewBox="0.00 0.00 830.00 2564.00" xmlns="http://www.w3.org/2000/svg" xmlns:xlink="http://www.w3.org/1999/xlink">
<g id="graph1" class="graph" transform="scale(1 1) rotate(0) translate(4 2560)">
<title>G</title>
<polygon fill="white" stroke="white" points="-4,5 -4,-2560 827,-2560 827,5 -4,5"/>
<g id="graph2" class="cluster"><title>cluster_Global</title>
<polyline fill="none" stroke="gray" points="160,-8 802,-8 "/>
<path fill="none" stroke="gray" d="M802,-8C808,-8 814,-14 814,-20"/>
<polyline fill="none" stroke="gray" points="814,-20 814,-2536 "/>
<path fill="none" stroke="gray" d="M814,-2536C814,-2542 808,-2548 802,-2548"/>
<polyline fill="none" stroke="gray" points="802,-2548 160,-2548 "/>
<path fill="none" stroke="gray" d="M160,-2548C154,-2548 148,-2542 148,-2536"/>
<polyline fill="none" stroke="gray" points="148,-2536 148,-20 "/>
<path fill="none" stroke="gray" d="M148,-20C148,-14 154,-8 160,-8"/>
<text text-anchor="middle" x="481" y="-2535.2" font-family="Times New Roman,serif" font-size="11.00" fill="gray">Global</text>
</g>
<g id="graph3" class="cluster"><title>cluster_\Alo</title>
<polyline fill="none" stroke="gray" points="168,-1168 767,-1168 "/>
<path fill="none" stroke="gray" d="M767,-1168C773,-1168 779,-1174 779,-1180"/>
<polyline fill="none" stroke="gray" points="779,-1180 779,-2464 "/>
<path fill="none" stroke="gray" d="M779,-2464C779,-2470 773,-2476 767,-2476"/>
<polyline fill="none" stroke="gray" points="767,-2476 168,-2476 "/>
<path fill="none" stroke="gray" d="M168,-2476C162,-2476 156,-2470 156,-2464"/>
<polyline fill="none" stroke="gray" points="156,-2464 156,-1180 "/>
<path fill="none" stroke="gray" d="M156,-1180C156,-1174 162,-1168 168,-1168"/>
<text text-anchor="middle" x="467.5" y="-2463.2" font-family="Times New Roman,serif" font-size="11.00" fill="gray">Alo</text>
</g>
<g id="graph4" class="cluster"><title>cluster_\Alo\Exception</title>
<polyline fill="none" stroke="gray" points="176,-2160 748,-2160 "/>
<path fill="none" stroke="gray" d="M748,-2160C754,-2160 760,-2166 760,-2172"/>
<polyline fill="none" stroke="gray" points="760,-2172 760,-2436 "/>
<path fill="none" stroke="gray" d="M760,-2436C760,-2442 754,-2448 748,-2448"/>
<polyline fill="none" stroke="gray" points="748,-2448 176,-2448 "/>
<path fill="none" stroke="gray" d="M176,-2448C170,-2448 164,-2442 164,-2436"/>
<polyline fill="none" stroke="gray" points="164,-2436 164,-2172 "/>
<path fill="none" stroke="gray" d="M164,-2172C164,-2166 170,-2160 176,-2160"/>
<text text-anchor="middle" x="462" y="-2435.2" font-family="Times New Roman,serif" font-size="11.00" fill="gray">Exception</text>
</g>
<g id="graph5" class="cluster"><title>cluster_\Alo\Controller</title>
<polyline fill="none" stroke="gray" points="383,-1652 725,-1652 "/>
<path fill="none" stroke="gray" d="M725,-1652C731,-1652 737,-1658 737,-1664"/>
<polyline fill="none" stroke="gray" points="737,-1664 737,-1766 "/>
<path fill="none" stroke="gray" d="M737,-1766C737,-1772 731,-1778 725,-1778"/>
<polyline fill="none" stroke="gray" points="725,-1778 383,-1778 "/>
<path fill="none" stroke="gray" d="M383,-1778C377,-1778 371,-1772 371,-1766"/>
<polyline fill="none" stroke="gray" points="371,-1766 371,-1664 "/>
<path fill="none" stroke="gray" d="M371,-1664C371,-1658 377,-1652 383,-1652"/>
<text text-anchor="middle" x="554" y="-1765.2" font-family="Times New Roman,serif" font-size="11.00" fill="gray">Controller</text>
</g>
<g id="graph6" class="cluster"><title>cluster_\Alo\Session</title>
<polyline fill="none" stroke="gray" points="393,-2026 759,-2026 "/>
<path fill="none" stroke="gray" d="M759,-2026C765,-2026 771,-2032 771,-2038"/>
<polyline fill="none" stroke="gray" points="771,-2038 771,-2140 "/>
<path fill="none" stroke="gray" d="M771,-2140C771,-2146 765,-2152 759,-2152"/>
<polyline fill="none" stroke="gray" points="759,-2152 393,-2152 "/>
<path fill="none" stroke="gray" d="M393,-2152C387,-2152 381,-2146 381,-2140"/>
<polyline fill="none" stroke="gray" points="381,-2140 381,-2038 "/>
<path fill="none" stroke="gray" d="M381,-2038C381,-2032 387,-2026 393,-2026"/>
<text text-anchor="middle" x="576" y="-2139.2" font-family="Times New Roman,serif" font-size="11.00" fill="gray">Session</text>
</g>
<g id="graph7" class="cluster"><title>cluster_\Alo\Db</title>
<polyline fill="none" stroke="gray" points="410,-1946 723,-1946 "/>
<path fill="none" stroke="gray" d="M723,-1946C729,-1946 735,-1952 735,-1958"/>
<polyline fill="none" stroke="gray" points="735,-1958 735,-2006 "/>
<path fill="none" stroke="gray" d="M735,-2006C735,-2012 729,-2018 723,-2018"/>
<polyline fill="none" stroke="gray" points="723,-2018 410,-2018 "/>
<path fill="none" stroke="gray" d="M410,-2018C404,-2018 398,-2012 398,-2006"/>
<polyline fill="none" stroke="gray" points="398,-2006 398,-1958 "/>
<path fill="none" stroke="gray" d="M398,-1958C398,-1952 404,-1946 410,-1946"/>
<text text-anchor="middle" x="566.5" y="-2005.2" font-family="Times New Roman,serif" font-size="11.00" fill="gray">Db</text>
</g>
<g id="graph8" class="cluster"><title>cluster_\Alo\Test</title>
<polyline fill="none" stroke="gray" points="397,-1866 742,-1866 "/>
<path fill="none" stroke="gray" d="M742,-1866C748,-1866 754,-1872 754,-1878"/>
<polyline fill="none" stroke="gray" points="754,-1878 754,-1926 "/>
<path fill="none" stroke="gray" d="M754,-1926C754,-1932 748,-1938 742,-1938"/>
<polyline fill="none" stroke="gray" points="742,-1938 397,-1938 "/>
<path fill="none" stroke="gray" d="M397,-1938C391,-1938 385,-1932 385,-1926"/>
<polyline fill="none" stroke="gray" points="385,-1926 385,-1878 "/>
<path fill="none" stroke="gray" d="M385,-1878C385,-1872 391,-1866 397,-1866"/>
<text text-anchor="middle" x="569.5" y="-1925.2" font-family="Times New Roman,serif" font-size="11.00" fill="gray">Test</text>
</g>
<g id="graph9" class="cluster"><title>cluster_\Alo\Cache</title>
<polyline fill="none" stroke="gray" points="400,-1786 759,-1786 "/>
<path fill="none" stroke="gray" d="M759,-1786C765,-1786 771,-1792 771,-1798"/>
<polyline fill="none" stroke="gray" points="771,-1798 771,-1846 "/>
<path fill="none" stroke="gray" d="M771,-1846C771,-1852 765,-1858 759,-1858"/>
<polyline fill="none" stroke="gray" points="759,-1858 400,-1858 "/>
<path fill="none" stroke="gray" d="M400,-1858C394,-1858 388,-1852 388,-1846"/>
<polyline fill="none" stroke="gray" points="388,-1846 388,-1798 "/>
<path fill="none" stroke="gray" d="M388,-1798C388,-1792 394,-1786 400,-1786"/>
<text text-anchor="middle" x="579.5" y="-1845.2" font-family="Times New Roman,serif" font-size="11.00" fill="gray">Cache</text>
</g>
<g id="graph10" class="cluster"><title>cluster_\Alo\Validators</title>
<polyline fill="none" stroke="gray" points="677,-1572 723,-1572 "/>
<path fill="none" stroke="gray" d="M723,-1572C729,-1572 735,-1578 735,-1584"/>
<polyline fill="none" stroke="gray" points="735,-1584 735,-1632 "/>
<path fill="none" stroke="gray" d="M735,-1632C735,-1638 729,-1644 723,-1644"/>
<polyline fill="none" stroke="gray" points="723,-1644 677,-1644 "/>
<path fill="none" stroke="gray" d="M677,-1644C671,-1644 665,-1638 665,-1632"/>
<polyline fill="none" stroke="gray" points="665,-1632 665,-1584 "/>
<path fill="none" stroke="gray" d="M665,-1584C665,-1578 671,-1572 677,-1572"/>
<text text-anchor="middle" x="700" y="-1631.2" font-family="Times New Roman,serif" font-size="11.00" fill="gray">Validators</text>
</g>
<g id="graph11" class="cluster"><title>cluster_\Alo\Statics</title>
<polyline fill="none" stroke="gray" points="675,-1438 725,-1438 "/>
<path fill="none" stroke="gray" d="M725,-1438C731,-1438 737,-1444 737,-1450"/>
<polyline fill="none" stroke="gray" points="737,-1450 737,-1552 "/>
<path fill="none" stroke="gray" d="M737,-1552C737,-1558 731,-1564 725,-1564"/>
<polyline fill="none" stroke="gray" points="725,-1564 675,-1564 "/>
<path fill="none" stroke="gray" d="M675,-1564C669,-1564 663,-1558 663,-1552"/>
<polyline fill="none" stroke="gray" points="663,-1552 663,-1450 "/>
<path fill="none" stroke="gray" d="M663,-1450C663,-1444 669,-1438 675,-1438"/>
<text text-anchor="middle" x="700" y="-1551.2" font-family="Times New Roman,serif" font-size="11.00" fill="gray">Statics</text>
</g>
<g id="graph12" class="cluster"><title>cluster_\Controller</title>
<polyline fill="none" stroke="gray" points="675,-1088 725,-1088 "/>
<path fill="none" stroke="gray" d="M725,-1088C731,-1088 737,-1094 737,-1100"/>
<polyline fill="none" stroke="gray" points="737,-1100 737,-1148 "/>
<path fill="none" stroke="gray" d="M737,-1148C737,-1154 731,-1160 725,-1160"/>
<polyline fill="none" stroke="gray" points="725,-1160 675,-1160 "/>
<path fill="none" stroke="gray" d="M675,-1160C669,-1160 663,-1154 663,-1148"/>
<polyline fill="none" stroke="gray" points="663,-1148 663,-1100 "/>
<path fill="none" stroke="gray" d="M663,-1100C663,-1094 669,-1088 675,-1088"/>
<text text-anchor="middle" x="700" y="-1147.2" font-family="Times New Roman,serif" font-size="11.00" fill="gray">Controller</text>
</g>
<!-- \\Alo\\Exception\\AbstractException -->
<g id="node4" class="node"><title>\\Alo\\Exception\\AbstractException</title>
<polygon fill="none" stroke="black" points="304,-2285 172,-2285 172,-2249 304,-2249 304,-2285"/>
<text text-anchor="start" x="204" y="-2270.7" font-family="Courier,monospace" font-size="11.00">«abstract»</text>
<text text-anchor="start" x="180.5" y="-2259.7" font-family="Courier,monospace" font-size="11.00">AbstractException</text>
</g>
<!-- \\Exception -->
<g id="node65" class="node"><title>\\Exception</title>
<ellipse fill="none" stroke="black" cx="50" cy="-1220" rx="50.0912" ry="18"/>
<text text-anchor="middle" x="50" y="-1216.3" font-family="Times New Roman,serif" font-size="14.00" fill="gray">\Exception</text>
</g>
<!-- \\Alo\\Exception\\AbstractException&#45;&gt;\\Exception -->
<g id="edge13" class="edge"><title>\\Alo\\Exception\\AbstractException&#45;&gt;\\Exception</title>
<path fill="none" stroke="black" d="M171.786,-2260.95C162.71,-2257.45 154.339,-2252.35 148,-2245 81.1147,-2167.41 56.2347,-1406.81 51.7652,-1248.7"/>
<polygon fill="none" stroke="black" points="55.2548,-1248.27 51.4784,-1238.37 48.2575,-1248.47 55.2548,-1248.27"/>
</g>
<!-- \\Alo\\Exception\\ExtensionException -->
<g id="node5" class="node"><title>\\Alo\\Exception\\ExtensionException</title>
<polygon fill="none" stroke="black" points="518,-2258 380,-2258 380,-2222 518,-2222 518,-2258"/>
<text text-anchor="middle" x="449" y="-2237.2" font-family="Courier,monospace" font-size="11.00">ExtensionException</text>
</g>
<!-- \\Alo\\Exception\\ExtensionException&#45;&gt;\\Alo\\Exception\\AbstractException -->
<g id="edge17" class="edge"><title>\\Alo\\Exception\\ExtensionException&#45;&gt;\\Alo\\Exception\\AbstractException</title>
<path fill="none" stroke="black" d="M379.855,-2248.8C358.876,-2251.51 335.665,-2254.51 314.239,-2257.28"/>
<polygon fill="none" stroke="black" points="313.678,-2253.82 304.209,-2258.58 314.575,-2260.77 313.678,-2253.82"/>
</g>
<!-- \\Alo\\Exception\\ControllerException -->
<g id="node6" class="node"><title>\\Alo\\Exception\\ControllerException</title>
<polygon fill="none" stroke="black" points="521.5,-2204 376.5,-2204 376.5,-2168 521.5,-2168 521.5,-2204"/>
<text text-anchor="middle" x="449" y="-2183.2" font-family="Courier,monospace" font-size="11.00">ControllerException</text>
</g>
<!-- \\Alo\\Exception\\ControllerException&#45;&gt;\\Alo\\Exception\\AbstractException -->
<g id="edge31" class="edge"><title>\\Alo\\Exception\\ControllerException&#45;&gt;\\Alo\\Exception\\AbstractException</title>
<path fill="none" stroke="black" d="M393.869,-2204.15C386.142,-2206.98 378.333,-2209.97 371,-2213 340.496,-2225.59 334.572,-2232.58 304,-2245 303.793,-2245.08 303.586,-2245.17 303.378,-2245.25"/>
<polygon fill="none" stroke="black" points="301.841,-2242.09 293.79,-2248.98 304.378,-2248.62 301.841,-2242.09"/>
</g>
<!-- \\Alo\\Exception\\FileException -->
<g id="node7" class="node"><title>\\Alo\\Exception\\FileException</title>
<polygon fill="none" stroke="black" points="501,-2420 397,-2420 397,-2384 501,-2384 501,-2420"/>
<text text-anchor="middle" x="449" y="-2399.2" font-family="Courier,monospace" font-size="11.00">FileException</text>
</g>
<!-- \\Alo\\Exception\\FileException&#45;&gt;\\Alo\\Exception\\AbstractException -->
<g id="edge39" class="edge"><title>\\Alo\\Exception\\FileException&#45;&gt;\\Alo\\Exception\\AbstractException</title>
<path fill="none" stroke="black" d="M396.78,-2386.86C387.946,-2383.47 379.029,-2379.51 371,-2375 330.285,-2352.15 289.645,-2316.47 264.436,-2292.44"/>
<polygon fill="none" stroke="black" points="266.751,-2289.81 257.125,-2285.38 261.889,-2294.84 266.751,-2289.81"/>
</g>
<!-- \\Alo\\Exception\\SFTPException -->
<g id="node8" class="node"><title>\\Alo\\Exception\\SFTPException</title>
<polygon fill="none" stroke="black" points="752,-2420 648,-2420 648,-2384 752,-2384 752,-2420"/>
<text text-anchor="middle" x="700" y="-2399.2" font-family="Courier,monospace" font-size="11.00">SFTPException</text>
</g>
<!-- \\Alo\\Exception\\SFTPException&#45;&gt;\\Alo\\Exception\\FileException -->
<g id="edge43" class="edge"><title>\\Alo\\Exception\\SFTPException&#45;&gt;\\Alo\\Exception\\FileException</title>
<path fill="none" stroke="black" d="M647.709,-2402C608.121,-2402 553.216,-2402 511.309,-2402"/>
<polygon fill="none" stroke="black" points="511.225,-2398.5 501.224,-2402 511.224,-2405.5 511.225,-2398.5"/>
</g>
<!-- \\Alo\\Exception\\CronException -->
<g id="node9" class="node"><title>\\Alo\\Exception\\CronException</title>
<polygon fill="none" stroke="black" points="501,-2366 397,-2366 397,-2330 501,-2330 501,-2366"/>
<text text-anchor="middle" x="449" y="-2345.2" font-family="Courier,monospace" font-size="11.00">CronException</text>
</g>
<!-- \\Alo\\Exception\\CronException&#45;&gt;\\Alo\\Exception\\AbstractException -->
<g id="edge47" class="edge"><title>\\Alo\\Exception\\CronException&#45;&gt;\\Alo\\Exception\\AbstractException</title>
<path fill="none" stroke="black" d="M396.922,-2330.5C388.244,-2327.41 379.344,-2324.17 371,-2321 344.433,-2310.92 315.158,-2299.02 290.941,-2288.96"/>
<polygon fill="none" stroke="black" points="292.16,-2285.68 281.583,-2285.07 289.468,-2292.14 292.16,-2285.68"/>
</g>
<!-- \\Alo\\Exception\\TesterException -->
<g id="node10" class="node"><title>\\Alo\\Exception\\TesterException</title>
<polygon fill="none" stroke="black" points="508,-2312 390,-2312 390,-2276 508,-2276 508,-2312"/>
<text text-anchor="middle" x="449" y="-2291.2" font-family="Courier,monospace" font-size="11.00">TesterException</text>
</g>
<!-- \\Alo\\Exception\\TesterException&#45;&gt;\\Alo\\Exception\\AbstractException -->
<g id="edge57" class="edge"><title>\\Alo\\Exception\\TesterException&#45;&gt;\\Alo\\Exception\\AbstractException</title>
<path fill="none" stroke="black" d="M389.782,-2286.48C366.427,-2283.46 339.207,-2279.95 314.373,-2276.74"/>
<polygon fill="none" stroke="black" points="314.626,-2273.24 304.26,-2275.43 313.729,-2280.18 314.626,-2273.24"/>
</g>
<!-- \\Alo\\Controller\\Router -->
<g id="node12" class="node"><title>\\Alo\\Controller\\Router</title>
<polygon fill="none" stroke="black" points="728.5,-1750 671.5,-1750 671.5,-1714 728.5,-1714 728.5,-1750"/>
<text text-anchor="middle" x="700" y="-1729.2" font-family="Courier,monospace" font-size="11.00">Router</text>
</g>
<!-- \\Alo\\Controller\\AbstractController -->
<g id="node13" class="node"><title>\\Alo\\Controller\\AbstractController</title>
<polygon fill="none" stroke="black" points="518.5,-1696 379.5,-1696 379.5,-1660 518.5,-1660 518.5,-1696"/>
<text text-anchor="start" x="415" y="-1681.7" font-family="Courier,monospace" font-size="11.00">«abstract»</text>
<text text-anchor="start" x="388" y="-1670.7" font-family="Courier,monospace" font-size="11.00">AbstractController</text>
</g>
<!-- \\Alo\\Controller\\Error -->
<g id="node14" class="node"><title>\\Alo\\Controller\\Error</title>
<polygon fill="none" stroke="black" points="727,-1696 673,-1696 673,-1660 727,-1660 727,-1696"/>
<text text-anchor="middle" x="700" y="-1675.2" font-family="Courier,monospace" font-size="11.00">Error</text>
</g>
<!-- \\Alo\\Controller\\Error&#45;&gt;\\Alo\\Controller\\AbstractController -->
<g id="edge63" class="edge"><title>\\Alo\\Controller\\Error&#45;&gt;\\Alo\\Controller\\AbstractController</title>
<path fill="none" stroke="black" d="M672.823,-1678C638.888,-1678 578.196,-1678 528.715,-1678"/>
<polygon fill="none" stroke="black" points="528.66,-1674.5 518.66,-1678 528.66,-1681.5 528.66,-1674.5"/>
</g>
<!-- \\Alo\\Session\\SQLSession -->
<g id="node16" class="node"><title>\\Alo\\Session\\SQLSession</title>
<polygon fill="none" stroke="black" points="742,-2124 658,-2124 658,-2088 742,-2088 742,-2124"/>
<text text-anchor="middle" x="700" y="-2103.2" font-family="Courier,monospace" font-size="11.00">SQLSession</text>
</g>
<!-- \\Alo\\Session\\AbstractSession -->
<g id="node18" class="node"><title>\\Alo\\Session\\AbstractSession</title>
<polygon fill="none" stroke="black" points="508.5,-2097 389.5,-2097 389.5,-2061 508.5,-2061 508.5,-2097"/>
<text text-anchor="start" x="415" y="-2082.7" font-family="Courier,monospace" font-size="11.00">«abstract»</text>
<text text-anchor="start" x="398" y="-2071.7" font-family="Courier,monospace" font-size="11.00">AbstractSession</text>
</g>
<!-- \\Alo\\Session\\SQLSession&#45;&gt;\\Alo\\Session\\AbstractSession -->
<g id="edge15" class="edge"><title>\\Alo\\Session\\SQLSession&#45;&gt;\\Alo\\Session\\AbstractSession</title>
<path fill="none" stroke="black" d="M657.883,-2101.54C620.207,-2097.46 563.677,-2091.33 519.073,-2086.49"/>
<polygon fill="none" stroke="black" points="519.2,-2082.98 508.881,-2085.38 518.446,-2089.94 519.2,-2082.98"/>
</g>
<!-- \\Alo\\Session\\MemcachedSession -->
<g id="node17" class="node"><title>\\Alo\\Session\\MemcachedSession</title>
<polygon fill="none" stroke="black" points="762.5,-2070 637.5,-2070 637.5,-2034 762.5,-2034 762.5,-2070"/>
<text text-anchor="middle" x="700" y="-2049.2" font-family="Courier,monospace" font-size="11.00">MemcachedSession</text>
</g>
<!-- \\Alo\\Session\\MemcachedSession&#45;&gt;\\Alo\\Session\\AbstractSession -->
<g id="edge35" class="edge"><title>\\Alo\\Session\\MemcachedSession&#45;&gt;\\Alo\\Session\\AbstractSession</title>
<path fill="none" stroke="black" d="M637.449,-2058.67C601.512,-2062.57 556.078,-2067.5 518.941,-2071.52"/>
<polygon fill="none" stroke="black" points="518.266,-2068.08 508.702,-2072.63 519.021,-2075.04 518.266,-2068.08"/>
</g>
<!-- \\Alo\\Db\\MySQL -->
<g id="node20" class="node"><title>\\Alo\\Db\\MySQL</title>
<polygon fill="none" stroke="black" points="727,-1990 673,-1990 673,-1954 727,-1954 727,-1990"/>
<text text-anchor="middle" x="700" y="-1969.2" font-family="Courier,monospace" font-size="11.00">MySQL</text>
</g>
<!-- \\Alo\\Db\\AbstractDb -->
<g id="node21" class="node"><title>\\Alo\\Db\\AbstractDb</title>
<polygon fill="none" stroke="black" points="491.5,-1990 406.5,-1990 406.5,-1954 491.5,-1954 491.5,-1990"/>
<text text-anchor="start" x="415" y="-1975.7" font-family="Courier,monospace" font-size="11.00">«abstract»</text>
<text text-anchor="start" x="415" y="-1964.7" font-family="Courier,monospace" font-size="11.00">AbstractDb</text>
</g>
<!-- \\Alo\\Db\\MySQL&#45;&gt;\\Alo\\Db\\AbstractDb -->
<g id="edge19" class="edge"><title>\\Alo\\Db\\MySQL&#45;&gt;\\Alo\\Db\\AbstractDb</title>
<path fill="none" stroke="black" d="M672.823,-1972C632.438,-1972 554.156,-1972 501.974,-1972"/>
<polygon fill="none" stroke="black" points="501.904,-1968.5 491.904,-1972 501.904,-1975.5 501.904,-1968.5"/>
</g>
<!-- \\Alo\\Test\\AbstractTester -->
<g id="node23" class="node"><title>\\Alo\\Test\\AbstractTester</title>
<polygon fill="none" stroke="black" points="505,-1910 393,-1910 393,-1874 505,-1874 505,-1910"/>
<text text-anchor="start" x="415" y="-1895.7" font-family="Courier,monospace" font-size="11.00">«abstract»</text>
<text text-anchor="start" x="401.5" y="-1884.7" font-family="Courier,monospace" font-size="11.00">AbstractTester</text>
</g>
<!-- \\Alo\\Test\\ClassTester -->
<g id="node24" class="node"><title>\\Alo\\Test\\ClassTester</title>
<polygon fill="none" stroke="black" points="745.5,-1910 654.5,-1910 654.5,-1874 745.5,-1874 745.5,-1910"/>
<text text-anchor="middle" x="700" y="-1889.2" font-family="Courier,monospace" font-size="11.00">ClassTester</text>
</g>
<!-- \\Alo\\Test\\ClassTester&#45;&gt;\\Alo\\Test\\AbstractTester -->
<g id="edge65" class="edge"><title>\\Alo\\Test\\ClassTester&#45;&gt;\\Alo\\Test\\AbstractTester</title>
<path fill="none" stroke="black" d="M654.484,-1892C615.681,-1892 558.901,-1892 515.014,-1892"/>
<polygon fill="none" stroke="black" points="515.008,-1888.5 505.008,-1892 515.008,-1895.5 515.008,-1888.5"/>
</g>
<!-- \\Alo\\Cache\\AbstractCache -->
<g id="node26" class="node"><title>\\Alo\\Cache\\AbstractCache</title>
<polygon fill="none" stroke="black" points="501.5,-1830 396.5,-1830 396.5,-1794 501.5,-1794 501.5,-1830"/>
<text text-anchor="start" x="415" y="-1815.7" font-family="Courier,monospace" font-size="11.00">«abstract»</text>
<text text-anchor="start" x="405" y="-1804.7" font-family="Courier,monospace" font-size="11.00">AbstractCache</text>
</g>
<!-- \\Alo\\Cache\\MemcachedWrapper -->
<g id="node27" class="node"><title>\\Alo\\Cache\\MemcachedWrapper</title>
<polygon fill="none" stroke="black" points="762.5,-1830 637.5,-1830 637.5,-1794 762.5,-1794 762.5,-1830"/>
<text text-anchor="middle" x="700" y="-1809.2" font-family="Courier,monospace" font-size="11.00">MemcachedWrapper</text>
</g>
<!-- \\Alo\\Cache\\MemcachedWrapper&#45;&gt;\\Alo\\Cache\\AbstractCache -->
<g id="edge71" class="edge"><title>\\Alo\\Cache\\MemcachedWrapper&#45;&gt;\\Alo\\Cache\\AbstractCache</title>
<path fill="none" stroke="black" d="M637.449,-1812C599.111,-1812 549.965,-1812 511.614,-1812"/>
<polygon fill="none" stroke="black" points="511.607,-1808.5 501.607,-1812 511.607,-1815.5 511.607,-1808.5"/>
</g>
<!-- \\Alo\\Validators\\Form -->
<g id="node29" class="node"><title>\\Alo\\Validators\\Form</title>
<polygon fill="none" stroke="black" points="727,-1616 673,-1616 673,-1580 727,-1580 727,-1616"/>
<text text-anchor="middle" x="700" y="-1595.2" font-family="Courier,monospace" font-size="11.00">Form</text>
</g>
<!-- \\Alo\\Statics\\Format -->
<g id="node31" class="node"><title>\\Alo\\Statics\\Format</title>
<polygon fill="none" stroke="black" points="728.5,-1536 671.5,-1536 671.5,-1500 728.5,-1500 728.5,-1536"/>
<text text-anchor="middle" x="700" y="-1515.2" font-family="Courier,monospace" font-size="11.00">Format</text>
</g>
<!-- \\Alo\\Statics\\Cookie -->
<g id="node32" class="node"><title>\\Alo\\Statics\\Cookie</title>
<polygon fill="none" stroke="black" points="728.5,-1482 671.5,-1482 671.5,-1446 728.5,-1446 728.5,-1482"/>
<text text-anchor="middle" x="700" y="-1461.2" font-family="Courier,monospace" font-size="11.00">Cookie</text>
</g>
<!-- \\Alo\\Cron -->
<g id="node33" class="node"><title>\\Alo\\Cron</title>
<polygon fill="none" stroke="black" points="727,-1428 673,-1428 673,-1392 727,-1392 727,-1428"/>
<text text-anchor="middle" x="700" y="-1407.2" font-family="Courier,monospace" font-size="11.00">Cron</text>
</g>
<!-- \\Alo\\cURL -->
<g id="node34" class="node"><title>\\Alo\\cURL</title>
<polygon fill="none" stroke="black" points="727,-1374 673,-1374 673,-1338 727,-1338 727,-1374"/>
<text text-anchor="middle" x="700" y="-1353.2" font-family="Courier,monospace" font-size="11.00">cURL</text>
</g>
<!-- \\Alo\\File -->
<g id="node35" class="node"><title>\\Alo\\File</title>
<polygon fill="none" stroke="black" points="727,-1320 673,-1320 673,-1284 727,-1284 727,-1320"/>
<text text-anchor="middle" x="700" y="-1299.2" font-family="Courier,monospace" font-size="11.00">File</text>
</g>
<!-- \\Alo\\Email -->
<g id="node36" class="node"><title>\\Alo\\Email</title>
<polygon fill="none" stroke="black" points="727,-1266 673,-1266 673,-1230 727,-1230 727,-1266"/>
<text text-anchor="middle" x="700" y="-1245.2" font-family="Courier,monospace" font-size="11.00">Email</text>
</g>
<!-- \\PHPMailer -->
<g id="node61" class="node"><title>\\PHPMailer</title>
<polygon fill="none" stroke="black" points="487.5,-2520 410.5,-2520 410.5,-2484 487.5,-2484 487.5,-2520"/>
<text text-anchor="middle" x="449" y="-2499.2" font-family="Courier,monospace" font-size="11.00">PHPMailer</text>
</g>
<!-- \\Alo\\Email&#45;&gt;\\PHPMailer -->
<g id="edge27" class="edge"><title>\\Alo\\Email&#45;&gt;\\PHPMailer</title>
<path fill="none" stroke="black" d="M672.942,-1246.76C648.492,-1247.16 612.932,-1252.07 594,-1275 427.178,-1477.08 650.485,-2223.62 522,-2452 515.937,-2462.78 506.47,-2471.75 496.371,-2478.98"/>
<polygon fill="none" stroke="black" points="494.213,-2476.21 487.799,-2484.64 498.072,-2482.05 494.213,-2476.21"/>
</g>
<!-- \\Alo\\SFTP -->
<g id="node37" class="node"><title>\\Alo\\SFTP</title>
<polygon fill="none" stroke="black" points="727,-1212 673,-1212 673,-1176 727,-1176 727,-1212"/>
<text text-anchor="middle" x="700" y="-1191.2" font-family="Courier,monospace" font-size="11.00">SFTP</text>
</g>
<!-- \\Controller\\Sample -->
<g id="node39" class="node"><title>\\Controller\\Sample</title>
<polygon fill="none" stroke="black" points="728.5,-1132 671.5,-1132 671.5,-1096 728.5,-1096 728.5,-1132"/>
<text text-anchor="middle" x="700" y="-1111.2" font-family="Courier,monospace" font-size="11.00">Sample</text>
</g>
<!-- \\Controller\\Sample&#45;&gt;\\Alo\\Controller\\AbstractController -->
<g id="edge41" class="edge"><title>\\Controller\\Sample&#45;&gt;\\Alo\\Controller\\AbstractController</title>
<path fill="none" stroke="black" d="M671.07,-1119.57C646.711,-1125.97 612.465,-1138.98 594,-1164 464.747,-1339.12 659.939,-1483.93 524.655,-1652.14"/>
<polygon fill="none" stroke="black" points="521.892,-1649.99 518.181,-1659.91 527.27,-1654.47 521.892,-1649.99"/>
</g>
<!-- \\Kint_Parsers_Timestamp -->
<g id="node40" class="node"><title>\\Kint_Parsers_Timestamp</title>
<polygon fill="none" stroke="black" points="782.5,-970 617.5,-970 617.5,-934 782.5,-934 782.5,-970"/>
<text text-anchor="middle" x="700" y="-949.2" font-family="Courier,monospace" font-size="11.00">Kint_Parsers_Timestamp</text>
</g>
<!-- \\kintParser -->
<g id="node59" class="node"><title>\\kintParser</title>
<polygon fill="none" stroke="black" points="491.5,-727 406.5,-727 406.5,-691 491.5,-691 491.5,-727"/>
<text text-anchor="start" x="415" y="-712.7" font-family="Courier,monospace" font-size="11.00">«abstract»</text>
<text text-anchor="start" x="415" y="-701.7" font-family="Courier,monospace" font-size="11.00">kintParser</text>
</g>
<!-- \\Kint_Parsers_Timestamp&#45;&gt;\\kintParser -->
<g id="edge21" class="edge"><title>\\Kint_Parsers_Timestamp&#45;&gt;\\kintParser</title>
<path fill="none" stroke="black" d="M617.474,-937.527C609.146,-934.182 601.137,-930.066 594,-925 525.005,-876.031 479.765,-782.73 460.542,-736.446"/>
<polygon fill="none" stroke="black" points="463.734,-735.005 456.731,-727.054 457.247,-737.636 463.734,-735.005"/>
</g>
<!-- \\Kint -->
<g id="node41" class="node"><title>\\Kint</title>
<polygon fill="none" stroke="black" points="476,-322 422,-322 422,-286 476,-286 476,-322"/>
<text text-anchor="middle" x="449" y="-301.2" font-family="Courier,monospace" font-size="11.00">Kint</text>
</g>
<!-- \\Kint_Parsers_Microtime -->
<g id="node42" class="node"><title>\\Kint_Parsers_Microtime</title>
<polygon fill="none" stroke="black" points="782.5,-916 617.5,-916 617.5,-880 782.5,-880 782.5,-916"/>
<text text-anchor="middle" x="700" y="-895.2" font-family="Courier,monospace" font-size="11.00">Kint_Parsers_Microtime</text>
</g>
<!-- \\Kint_Parsers_Microtime&#45;&gt;\\kintParser -->
<g id="edge23" class="edge"><title>\\Kint_Parsers_Microtime&#45;&gt;\\kintParser</title>
<path fill="none" stroke="black" d="M617.328,-882.202C609.163,-879.107 601.23,-875.412 594,-871 537.145,-836.304 490.072,-772.143 466.433,-735.848"/>
<polygon fill="none" stroke="black" points="469.274,-733.793 460.936,-727.256 463.377,-737.566 469.274,-733.793"/>
</g>
<!-- \\Kint_Parsers_Json -->
<g id="node43" class="node"><title>\\Kint_Parsers_Json</title>
<polygon fill="none" stroke="black" points="765.5,-808 634.5,-808 634.5,-772 765.5,-772 765.5,-808"/>
<text text-anchor="middle" x="700" y="-787.2" font-family="Courier,monospace" font-size="11.00">Kint_Parsers_Json</text>
</g>
<!-- \\Kint_Parsers_Json&#45;&gt;\\kintParser -->
<g id="edge25" class="edge"><title>\\Kint_Parsers_Json&#45;&gt;\\kintParser</title>
<path fill="none" stroke="black" d="M634.277,-774.518C620.886,-770.99 606.926,-767.073 594,-763 562.791,-753.167 528.463,-740.373 501.153,-729.707"/>
<polygon fill="none" stroke="black" points="502.39,-726.433 491.803,-726.031 499.829,-732.947 502.39,-726.433"/>
</g>
<!-- \\Kint_Parsers_ClassMethods -->
<g id="node44" class="node"><title>\\Kint_Parsers_ClassMethods</title>
<polygon fill="none" stroke="black" points="792.5,-646 607.5,-646 607.5,-610 792.5,-610 792.5,-646"/>
<text text-anchor="middle" x="700" y="-625.2" font-family="Courier,monospace" font-size="11.00">Kint_Parsers_ClassMethods</text>
</g>
<!-- \\Kint_Parsers_ClassMethods&#45;&gt;\\kintParser -->
<g id="edge29" class="edge"><title>\\Kint_Parsers_ClassMethods&#45;&gt;\\kintParser</title>
<path fill="none" stroke="black" d="M624.718,-646.043C614.351,-648.869 603.874,-651.889 594,-655 562.791,-664.833 528.463,-677.627 501.153,-688.293"/>
<polygon fill="none" stroke="black" points="499.829,-685.053 491.803,-691.969 502.39,-691.567 499.829,-685.053"/>
</g>
<!-- \\POP3 -->
<g id="node45" class="node"><title>\\POP3</title>
<polygon fill="none" stroke="black" points="727,-862 673,-862 673,-826 727,-826 727,-862"/>
<text text-anchor="middle" x="700" y="-841.2" font-family="Courier,monospace" font-size="11.00">POP3</text>
</g>
<!-- \\Kint_Decorators_Concise -->
<g id="node46" class="node"><title>\\Kint_Decorators_Concise</title>
<polygon fill="none" stroke="black" points="786,-322 614,-322 614,-286 786,-286 786,-322"/>
<text text-anchor="middle" x="700" y="-301.2" font-family="Courier,monospace" font-size="11.00">Kint_Decorators_Concise</text>
</g>
<!-- \\Kint_Decorators_Concise&#45;&gt;\\Kint -->
<g id="edge33" class="edge"><title>\\Kint_Decorators_Concise&#45;&gt;\\Kint</title>
<path fill="none" stroke="black" d="M613.657,-304C570.211,-304 519.683,-304 486.393,-304"/>
<polygon fill="none" stroke="black" points="486.222,-300.5 476.222,-304 486.222,-307.5 486.222,-300.5"/>
</g>
<!-- \\Log -->
<g id="node47" class="node"><title>\\Log</title>
<polygon fill="none" stroke="black" points="742.5,-754 657.5,-754 657.5,-718 742.5,-718 742.5,-754"/>
<text text-anchor="start" x="666" y="-739.7" font-family="Courier,monospace" font-size="11.00">«abstract»</text>
<text text-anchor="start" x="689.5" y="-728.7" font-family="Courier,monospace" font-size="11.00">Log</text>
</g>
<!-- \\ntlm_sasl_client_class -->
<g id="node48" class="node"><title>\\ntlm_sasl_client_class</title>
<polygon fill="none" stroke="black" points="782.5,-700 617.5,-700 617.5,-664 782.5,-664 782.5,-700"/>
<text text-anchor="middle" x="700" y="-679.2" font-family="Courier,monospace" font-size="11.00">ntlm_sasl_client_class</text>
</g>
<!-- \\Kint_Parsers_ClassStatics -->
<g id="node49" class="node"><title>\\Kint_Parsers_ClassStatics</title>
<polygon fill="none" stroke="black" points="792.5,-592 607.5,-592 607.5,-556 792.5,-556 792.5,-592"/>
<text text-anchor="middle" x="700" y="-571.2" font-family="Courier,monospace" font-size="11.00">Kint_Parsers_ClassStatics</text>
</g>
<!-- \\Kint_Parsers_ClassStatics&#45;&gt;\\kintParser -->
<g id="edge37" class="edge"><title>\\Kint_Parsers_ClassStatics&#45;&gt;\\kintParser</title>
<path fill="none" stroke="black" d="M615.938,-592.077C608.379,-594.697 600.957,-597.66 594,-601 548.873,-622.665 503.839,-659.504 476.45,-684.044"/>
<polygon fill="none" stroke="black" points="473.923,-681.611 468.872,-690.925 478.629,-686.794 473.923,-681.611"/>
</g>
<!-- \\Kint_Parsers_ArrayObject -->
<g id="node50" class="node"><title>\\Kint_Parsers_ArrayObject</title>
<polygon fill="none" stroke="black" points="789.5,-538 610.5,-538 610.5,-502 789.5,-502 789.5,-538"/>
<text text-anchor="middle" x="700" y="-517.2" font-family="Courier,monospace" font-size="11.00">Kint_Parsers_ArrayObject</text>
</g>
<!-- \\Kint_Parsers_ArrayObject&#45;&gt;\\kintParser -->
<g id="edge45" class="edge"><title>\\Kint_Parsers_ArrayObject&#45;&gt;\\kintParser</title>
<path fill="none" stroke="black" d="M611.656,-538.064C605.499,-540.656 599.543,-543.617 594,-547 537.145,-581.696 490.072,-645.857 466.433,-682.152"/>
<polygon fill="none" stroke="black" points="463.377,-680.434 460.936,-690.744 469.274,-684.207 463.377,-680.434"/>
</g>
<!-- \\Kint_Decorators_Rich -->
<g id="node51" class="node"><title>\\Kint_Decorators_Rich</title>
<polygon fill="none" stroke="black" points="776,-214 624,-214 624,-178 776,-178 776,-214"/>
<text text-anchor="middle" x="700" y="-193.2" font-family="Courier,monospace" font-size="11.00">Kint_Decorators_Rich</text>
</g>
<!-- \\Kint_Decorators_Rich&#45;&gt;\\Kint -->
<g id="edge49" class="edge"><title>\\Kint_Decorators_Rich&#45;&gt;\\Kint</title>
<path fill="none" stroke="black" d="M623.812,-211.053C613.531,-214.334 603.318,-218.278 594,-223 557.097,-241.703 558.474,-262.474 522,-282 510.949,-287.916 498.072,-292.487 486.29,-295.891"/>
<polygon fill="none" stroke="black" points="485.035,-292.604 476.29,-298.586 486.856,-299.363 485.035,-292.604"/>
</g>
<!-- \\Kint_Parsers_Color -->
<g id="node52" class="node"><title>\\Kint_Parsers_Color</title>
<polygon fill="none" stroke="black" points="769,-484 631,-484 631,-448 769,-448 769,-484"/>
<text text-anchor="middle" x="700" y="-463.2" font-family="Courier,monospace" font-size="11.00">Kint_Parsers_Color</text>
</g>
<!-- \\Kint_Parsers_Color&#45;&gt;\\kintParser -->
<g id="edge51" class="edge"><title>\\Kint_Parsers_Color&#45;&gt;\\kintParser</title>
<path fill="none" stroke="black" d="M630.823,-475.803C617.827,-479.744 604.898,-485.265 594,-493 525.005,-541.969 479.765,-635.27 460.542,-681.554"/>
<polygon fill="none" stroke="black" points="457.247,-680.364 456.731,-690.946 463.734,-682.995 457.247,-680.364"/>
</g>
<!-- \\Kint_Parsers_SplFileInfo -->
<g id="node53" class="node"><title>\\Kint_Parsers_SplFileInfo</title>
<polygon fill="none" stroke="black" points="789.5,-430 610.5,-430 610.5,-394 789.5,-394 789.5,-430"/>
<text text-anchor="middle" x="700" y="-409.2" font-family="Courier,monospace" font-size="11.00">Kint_Parsers_SplFileInfo</text>
</g>
<!-- \\Kint_Parsers_SplFileInfo&#45;&gt;\\kintParser -->
<g id="edge53" class="edge"><title>\\Kint_Parsers_SplFileInfo&#45;&gt;\\kintParser</title>
<path fill="none" stroke="black" d="M610.414,-428.774C604.578,-431.664 599.031,-435.045 594,-439 512.588,-503.006 471.665,-626.091 456.774,-681.168"/>
<polygon fill="none" stroke="black" points="453.364,-680.375 454.216,-690.935 460.136,-682.148 453.364,-680.375"/>
</g>
<!-- \\Kint_Parsers_Xml -->
<g id="node54" class="node"><title>\\Kint_Parsers_Xml</title>
<polygon fill="none" stroke="black" points="762.5,-1078 637.5,-1078 637.5,-1042 762.5,-1042 762.5,-1078"/>
<text text-anchor="middle" x="700" y="-1057.2" font-family="Courier,monospace" font-size="11.00">Kint_Parsers_Xml</text>
</g>
<!-- \\Kint_Parsers_Xml&#45;&gt;\\kintParser -->
<g id="edge55" class="edge"><title>\\Kint_Parsers_Xml&#45;&gt;\\kintParser</title>
<path fill="none" stroke="black" d="M637.39,-1053.78C621.894,-1049.78 606.215,-1043.33 594,-1033 500.04,-953.516 465.012,-800.562 454.175,-737.378"/>
<polygon fill="none" stroke="black" points="457.602,-736.647 452.531,-727.345 450.694,-737.779 457.602,-736.647"/>
</g>
<!-- \\Kint_Parsers_SplObjectStorage -->
<g id="node55" class="node"><title>\\Kint_Parsers_SplObjectStorage</title>
<polygon fill="none" stroke="black" points="806,-1024 594,-1024 594,-988 806,-988 806,-1024"/>
<text text-anchor="middle" x="700" y="-1003.2" font-family="Courier,monospace" font-size="11.00">Kint_Parsers_SplObjectStorage</text>
</g>
<!-- \\Kint_Parsers_SplObjectStorage&#45;&gt;\\kintParser -->
<g id="edge59" class="edge"><title>\\Kint_Parsers_SplObjectStorage&#45;&gt;\\kintParser</title>
<path fill="none" stroke="black" d="M607.859,-987.919C602.957,-985.329 598.291,-982.374 594,-979 512.588,-914.994 471.665,-791.909 456.774,-736.832"/>
<polygon fill="none" stroke="black" points="460.136,-735.852 454.216,-727.065 453.364,-737.625 460.136,-735.852"/>
</g>
<!-- \\SMTP -->
<g id="node56" class="node"><title>\\SMTP</title>
<polygon fill="none" stroke="black" points="727,-268 673,-268 673,-232 727,-232 727,-268"/>
<text text-anchor="middle" x="700" y="-247.2" font-family="Courier,monospace" font-size="11.00">SMTP</text>
</g>
<!-- \\Kint_Decorators_Plain -->
<g id="node57" class="node"><title>\\Kint_Decorators_Plain</title>
<polygon fill="none" stroke="black" points="779,-376 621,-376 621,-340 779,-340 779,-376"/>
<text text-anchor="middle" x="700" y="-355.2" font-family="Courier,monospace" font-size="11.00">Kint_Decorators_Plain</text>
</g>
<!-- \\Kint_Decorators_Plain&#45;&gt;\\Kint -->
<g id="edge61" class="edge"><title>\\Kint_Decorators_Plain&#45;&gt;\\Kint</title>
<path fill="none" stroke="black" d="M620.898,-341.062C575.724,-331.265 521.04,-319.406 485.9,-311.785"/>
<polygon fill="none" stroke="black" points="486.607,-308.358 476.093,-309.659 485.124,-315.199 486.607,-308.358"/>
</g>
<!-- \\EasyPeasyICS -->
<g id="node58" class="node"><title>\\EasyPeasyICS</title>
<polygon fill="none" stroke="black" points="749,-160 651,-160 651,-124 749,-124 749,-160"/>
<text text-anchor="middle" x="700" y="-139.2" font-family="Courier,monospace" font-size="11.00">EasyPeasyICS</text>
</g>
<!-- \\kintVariableData -->
<g id="node60" class="node"><title>\\kintVariableData</title>
<polygon fill="none" stroke="black" points="300.5,-727 175.5,-727 175.5,-691 300.5,-691 300.5,-727"/>
<text text-anchor="middle" x="238" y="-706.2" font-family="Courier,monospace" font-size="11.00">kintVariableData</text>
</g>
<!-- \\kintParser&#45;&gt;\\kintVariableData -->
<g id="edge67" class="edge"><title>\\kintParser&#45;&gt;\\kintVariableData</title>
<path fill="none" stroke="black" d="M406.458,-709C379.174,-709 342.761,-709 310.859,-709"/>
<polygon fill="none" stroke="black" points="310.677,-705.5 300.677,-709 310.677,-712.5 310.677,-705.5"/>
</g>
<!-- \\phpmailerException -->
<g id="node62" class="node"><title>\\phpmailerException</title>
<polygon fill="none" stroke="black" points="769,-106 631,-106 631,-70 769,-70 769,-106"/>
<text text-anchor="middle" x="700" y="-85.2" font-family="Courier,monospace" font-size="11.00">phpmailerException</text>
</g>
<!-- \\phpmailerException&#45;&gt;\\Exception -->
<g id="edge69" class="edge"><title>\\phpmailerException&#45;&gt;\\Exception</title>
<path fill="none" stroke="black" d="M630.747,-101.557C618.228,-105.154 605.495,-109.589 594,-115 483.164,-167.176 452.046,-185.138 371,-277 235.057,-431.086 216.69,-488.339 148,-682 81.6396,-869.093 58.9646,-1109.61 52.8888,-1191.35"/>
<polygon fill="none" stroke="black" points="49.3631,-1191.58 52.1388,-1201.81 56.3452,-1192.09 49.3631,-1191.58"/>
</g>
<!-- \\Alo -->
<g id="node63" class="node"><title>\\Alo</title>
<polygon fill="none" stroke="black" points="727,-52 673,-52 673,-16 727,-16 727,-52"/>
<text text-anchor="middle" x="700" y="-31.2" font-family="Courier,monospace" font-size="11.00">Alo</text>
</g>
</g>
</svg>
