<?xml version="1.0" encoding="UTF-8" standalone="no"?>
<!DOCTYPE svg PUBLIC "-//W3C//DTD SVG 1.1//EN"
 "http://www.w3.org/Graphics/SVG/1.1/DTD/svg11.dtd">
<!-- Generated by graphviz version 2.28.0 (20110507.0327)
 -->
<!-- Title: G Pages: 1 -->
<svg width="830pt" height="2682pt"
 viewBox="0.00 0.00 830.00 2682.00" xmlns="http://www.w3.org/2000/svg" xmlns:xlink="http://www.w3.org/1999/xlink">
<g id="graph1" class="graph" transform="scale(1 1) rotate(0) translate(4 2678)">
<title>G</title>
<polygon fill="white" stroke="white" points="-4,5 -4,-2678 827,-2678 827,5 -4,5"/>
<g id="graph2" class="cluster"><title>cluster_Global</title>
<polyline fill="none" stroke="gray" points="160,-8 802,-8 "/>
<path fill="none" stroke="gray" d="M802,-8C808,-8 814,-14 814,-20"/>
<polyline fill="none" stroke="gray" points="814,-20 814,-2654 "/>
<path fill="none" stroke="gray" d="M814,-2654C814,-2660 808,-2666 802,-2666"/>
<polyline fill="none" stroke="gray" points="802,-2666 160,-2666 "/>
<path fill="none" stroke="gray" d="M160,-2666C154,-2666 148,-2660 148,-2654"/>
<polyline fill="none" stroke="gray" points="148,-2654 148,-20 "/>
<path fill="none" stroke="gray" d="M148,-20C148,-14 154,-8 160,-8"/>
<text text-anchor="middle" x="481" y="-2653.2" font-family="Times New Roman,serif" font-size="11.00" fill="gray">Global</text>
</g>
<g id="graph3" class="cluster"><title>cluster_\Controller</title>
<polyline fill="none" stroke="gray" points="675,-2566 725,-2566 "/>
<path fill="none" stroke="gray" d="M725,-2566C731,-2566 737,-2572 737,-2578"/>
<polyline fill="none" stroke="gray" points="737,-2578 737,-2626 "/>
<path fill="none" stroke="gray" d="M737,-2626C737,-2632 731,-2638 725,-2638"/>
<polyline fill="none" stroke="gray" points="725,-2638 675,-2638 "/>
<path fill="none" stroke="gray" d="M675,-2638C669,-2638 663,-2632 663,-2626"/>
<polyline fill="none" stroke="gray" points="663,-2626 663,-2578 "/>
<path fill="none" stroke="gray" d="M663,-2578C663,-2572 669,-2566 675,-2566"/>
<text text-anchor="middle" x="700" y="-2625.2" font-family="Times New Roman,serif" font-size="11.00" fill="gray">Controller</text>
</g>
<g id="graph4" class="cluster"><title>cluster_\Alo</title>
<polyline fill="none" stroke="gray" points="168,-1088 767,-1088 "/>
<path fill="none" stroke="gray" d="M767,-1088C773,-1088 779,-1094 779,-1100"/>
<polyline fill="none" stroke="gray" points="779,-1100 779,-2546 "/>
<path fill="none" stroke="gray" d="M779,-2546C779,-2552 773,-2558 767,-2558"/>
<polyline fill="none" stroke="gray" points="767,-2558 168,-2558 "/>
<path fill="none" stroke="gray" d="M168,-2558C162,-2558 156,-2552 156,-2546"/>
<polyline fill="none" stroke="gray" points="156,-2546 156,-1100 "/>
<path fill="none" stroke="gray" d="M156,-1100C156,-1094 162,-1088 168,-1088"/>
<text text-anchor="middle" x="467.5" y="-2545.2" font-family="Times New Roman,serif" font-size="11.00" fill="gray">Alo</text>
</g>
<g id="graph5" class="cluster"><title>cluster_\Alo\Cache</title>
<polyline fill="none" stroke="gray" points="400,-2458 759,-2458 "/>
<path fill="none" stroke="gray" d="M759,-2458C765,-2458 771,-2464 771,-2470"/>
<polyline fill="none" stroke="gray" points="771,-2470 771,-2518 "/>
<path fill="none" stroke="gray" d="M771,-2518C771,-2524 765,-2530 759,-2530"/>
<polyline fill="none" stroke="gray" points="759,-2530 400,-2530 "/>
<path fill="none" stroke="gray" d="M400,-2530C394,-2530 388,-2524 388,-2518"/>
<polyline fill="none" stroke="gray" points="388,-2518 388,-2470 "/>
<path fill="none" stroke="gray" d="M388,-2470C388,-2464 394,-2458 400,-2458"/>
<text text-anchor="middle" x="579.5" y="-2517.2" font-family="Times New Roman,serif" font-size="11.00" fill="gray">Cache</text>
</g>
<g id="graph6" class="cluster"><title>cluster_\Alo\Controller</title>
<polyline fill="none" stroke="gray" points="383,-2324 725,-2324 "/>
<path fill="none" stroke="gray" d="M725,-2324C731,-2324 737,-2330 737,-2336"/>
<polyline fill="none" stroke="gray" points="737,-2336 737,-2438 "/>
<path fill="none" stroke="gray" d="M737,-2438C737,-2444 731,-2450 725,-2450"/>
<polyline fill="none" stroke="gray" points="725,-2450 383,-2450 "/>
<path fill="none" stroke="gray" d="M383,-2450C377,-2450 371,-2444 371,-2438"/>
<polyline fill="none" stroke="gray" points="371,-2438 371,-2336 "/>
<path fill="none" stroke="gray" d="M371,-2336C371,-2330 377,-2324 383,-2324"/>
<text text-anchor="middle" x="554" y="-2437.2" font-family="Times New Roman,serif" font-size="11.00" fill="gray">Controller</text>
</g>
<g id="graph7" class="cluster"><title>cluster_\Alo\Db</title>
<polyline fill="none" stroke="gray" points="410,-2244 723,-2244 "/>
<path fill="none" stroke="gray" d="M723,-2244C729,-2244 735,-2250 735,-2256"/>
<polyline fill="none" stroke="gray" points="735,-2256 735,-2304 "/>
<path fill="none" stroke="gray" d="M735,-2304C735,-2310 729,-2316 723,-2316"/>
<polyline fill="none" stroke="gray" points="723,-2316 410,-2316 "/>
<path fill="none" stroke="gray" d="M410,-2316C404,-2316 398,-2310 398,-2304"/>
<polyline fill="none" stroke="gray" points="398,-2304 398,-2256 "/>
<path fill="none" stroke="gray" d="M398,-2256C398,-2250 404,-2244 410,-2244"/>
<text text-anchor="middle" x="566.5" y="-2303.2" font-family="Times New Roman,serif" font-size="11.00" fill="gray">Db</text>
</g>
<g id="graph8" class="cluster"><title>cluster_\Alo\Exception</title>
<polyline fill="none" stroke="gray" points="176,-1894 748,-1894 "/>
<path fill="none" stroke="gray" d="M748,-1894C754,-1894 760,-1900 760,-1906"/>
<polyline fill="none" stroke="gray" points="760,-1906 760,-2224 "/>
<path fill="none" stroke="gray" d="M760,-2224C760,-2230 754,-2236 748,-2236"/>
<polyline fill="none" stroke="gray" points="748,-2236 176,-2236 "/>
<path fill="none" stroke="gray" d="M176,-2236C170,-2236 164,-2230 164,-2224"/>
<polyline fill="none" stroke="gray" points="164,-2224 164,-1906 "/>
<path fill="none" stroke="gray" d="M164,-1906C164,-1900 170,-1894 176,-1894"/>
<text text-anchor="middle" x="462" y="-2223.2" font-family="Times New Roman,serif" font-size="11.00" fill="gray">Exception</text>
</g>
<g id="graph9" class="cluster"><title>cluster_\Alo\Session</title>
<polyline fill="none" stroke="gray" points="393,-1760 759,-1760 "/>
<path fill="none" stroke="gray" d="M759,-1760C765,-1760 771,-1766 771,-1772"/>
<polyline fill="none" stroke="gray" points="771,-1772 771,-1874 "/>
<path fill="none" stroke="gray" d="M771,-1874C771,-1880 765,-1886 759,-1886"/>
<polyline fill="none" stroke="gray" points="759,-1886 393,-1886 "/>
<path fill="none" stroke="gray" d="M393,-1886C387,-1886 381,-1880 381,-1874"/>
<polyline fill="none" stroke="gray" points="381,-1874 381,-1772 "/>
<path fill="none" stroke="gray" d="M381,-1772C381,-1766 387,-1760 393,-1760"/>
<text text-anchor="middle" x="576" y="-1873.2" font-family="Times New Roman,serif" font-size="11.00" fill="gray">Session</text>
</g>
<g id="graph10" class="cluster"><title>cluster_\Alo\Statics</title>
<polyline fill="none" stroke="gray" points="675,-1626 725,-1626 "/>
<path fill="none" stroke="gray" d="M725,-1626C731,-1626 737,-1632 737,-1638"/>
<polyline fill="none" stroke="gray" points="737,-1638 737,-1740 "/>
<path fill="none" stroke="gray" d="M737,-1740C737,-1746 731,-1752 725,-1752"/>
<polyline fill="none" stroke="gray" points="725,-1752 675,-1752 "/>
<path fill="none" stroke="gray" d="M675,-1752C669,-1752 663,-1746 663,-1740"/>
<polyline fill="none" stroke="gray" points="663,-1740 663,-1638 "/>
<path fill="none" stroke="gray" d="M663,-1638C663,-1632 669,-1626 675,-1626"/>
<text text-anchor="middle" x="700" y="-1739.2" font-family="Times New Roman,serif" font-size="11.00" fill="gray">Statics</text>
</g>
<g id="graph11" class="cluster"><title>cluster_\Alo\Test</title>
<polyline fill="none" stroke="gray" points="397,-1546 742,-1546 "/>
<path fill="none" stroke="gray" d="M742,-1546C748,-1546 754,-1552 754,-1558"/>
<polyline fill="none" stroke="gray" points="754,-1558 754,-1606 "/>
<path fill="none" stroke="gray" d="M754,-1606C754,-1612 748,-1618 742,-1618"/>
<polyline fill="none" stroke="gray" points="742,-1618 397,-1618 "/>
<path fill="none" stroke="gray" d="M397,-1618C391,-1618 385,-1612 385,-1606"/>
<polyline fill="none" stroke="gray" points="385,-1606 385,-1558 "/>
<path fill="none" stroke="gray" d="M385,-1558C385,-1552 391,-1546 397,-1546"/>
<text text-anchor="middle" x="569.5" y="-1605.2" font-family="Times New Roman,serif" font-size="11.00" fill="gray">Test</text>
</g>
<g id="graph12" class="cluster"><title>cluster_\Alo\Validators</title>
<polyline fill="none" stroke="gray" points="677,-1466 723,-1466 "/>
<path fill="none" stroke="gray" d="M723,-1466C729,-1466 735,-1472 735,-1478"/>
<polyline fill="none" stroke="gray" points="735,-1478 735,-1526 "/>
<path fill="none" stroke="gray" d="M735,-1526C735,-1532 729,-1538 723,-1538"/>
<polyline fill="none" stroke="gray" points="723,-1538 677,-1538 "/>
<path fill="none" stroke="gray" d="M677,-1538C671,-1538 665,-1532 665,-1526"/>
<polyline fill="none" stroke="gray" points="665,-1526 665,-1478 "/>
<path fill="none" stroke="gray" d="M665,-1478C665,-1472 671,-1466 677,-1466"/>
<text text-anchor="middle" x="700" y="-1525.2" font-family="Times New Roman,serif" font-size="11.00" fill="gray">Validators</text>
</g>
<!-- \\Controller\\Sample -->
<g id="node3" class="node"><title>\\Controller\\Sample</title>
<polygon fill="none" stroke="black" points="728.5,-2610 671.5,-2610 671.5,-2574 728.5,-2574 728.5,-2610"/>
<text text-anchor="middle" x="700" y="-2589.2" font-family="Courier,monospace" font-size="11.00">Sample</text>
</g>
<!-- \\Alo\\Controller\\AbstractController -->
<g id="node9" class="node"><title>\\Alo\\Controller\\AbstractController</title>
<polygon fill="none" stroke="black" points="518.5,-2422 379.5,-2422 379.5,-2386 518.5,-2386 518.5,-2422"/>
<text text-anchor="start" x="415" y="-2407.7" font-family="Courier,monospace" font-size="11.00">«abstract»</text>
<text text-anchor="start" x="388" y="-2396.7" font-family="Courier,monospace" font-size="11.00">AbstractController</text>
</g>
<!-- \\Controller\\Sample&#45;&gt;\\Alo\\Controller\\AbstractController -->
<g id="edge13" class="edge"><title>\\Controller\\Sample&#45;&gt;\\Alo\\Controller\\AbstractController</title>
<path fill="none" stroke="black" d="M671.14,-2579.77C649.033,-2569.34 617.97,-2553.04 594,-2534 556.545,-2504.25 557.884,-2485.63 522,-2454 511.447,-2444.7 499.128,-2435.59 487.693,-2427.76"/>
<polygon fill="none" stroke="black" points="489.419,-2424.7 479.166,-2422.03 485.516,-2430.51 489.419,-2424.7"/>
</g>
<!-- \\Alo\\Cache\\AbstractCache -->
<g id="node6" class="node"><title>\\Alo\\Cache\\AbstractCache</title>
<polygon fill="none" stroke="black" points="501.5,-2502 396.5,-2502 396.5,-2466 501.5,-2466 501.5,-2502"/>
<text text-anchor="start" x="415" y="-2487.7" font-family="Courier,monospace" font-size="11.00">«abstract»</text>
<text text-anchor="start" x="405" y="-2476.7" font-family="Courier,monospace" font-size="11.00">AbstractCache</text>
</g>
<!-- \\Alo\\Cache\\MemcachedWrapper -->
<g id="node7" class="node"><title>\\Alo\\Cache\\MemcachedWrapper</title>
<polygon fill="none" stroke="black" points="762.5,-2502 637.5,-2502 637.5,-2466 762.5,-2466 762.5,-2502"/>
<text text-anchor="middle" x="700" y="-2481.2" font-family="Courier,monospace" font-size="11.00">MemcachedWrapper</text>
</g>
<!-- \\Alo\\Cache\\MemcachedWrapper&#45;&gt;\\Alo\\Cache\\AbstractCache -->
<g id="edge15" class="edge"><title>\\Alo\\Cache\\MemcachedWrapper&#45;&gt;\\Alo\\Cache\\AbstractCache</title>
<path fill="none" stroke="black" d="M637.449,-2484C599.111,-2484 549.965,-2484 511.614,-2484"/>
<polygon fill="none" stroke="black" points="511.607,-2480.5 501.607,-2484 511.607,-2487.5 511.607,-2480.5"/>
</g>
<!-- \\Alo\\Controller\\Error -->
<g id="node10" class="node"><title>\\Alo\\Controller\\Error</title>
<polygon fill="none" stroke="black" points="727,-2422 673,-2422 673,-2386 727,-2386 727,-2422"/>
<text text-anchor="middle" x="700" y="-2401.2" font-family="Courier,monospace" font-size="11.00">Error</text>
</g>
<!-- \\Alo\\Controller\\Error&#45;&gt;\\Alo\\Controller\\AbstractController -->
<g id="edge17" class="edge"><title>\\Alo\\Controller\\Error&#45;&gt;\\Alo\\Controller\\AbstractController</title>
<path fill="none" stroke="black" d="M672.823,-2404C638.888,-2404 578.196,-2404 528.715,-2404"/>
<polygon fill="none" stroke="black" points="528.66,-2400.5 518.66,-2404 528.66,-2407.5 528.66,-2400.5"/>
</g>
<!-- \\Alo\\Controller\\Router -->
<g id="node11" class="node"><title>\\Alo\\Controller\\Router</title>
<polygon fill="none" stroke="black" points="728.5,-2368 671.5,-2368 671.5,-2332 728.5,-2332 728.5,-2368"/>
<text text-anchor="middle" x="700" y="-2347.2" font-family="Courier,monospace" font-size="11.00">Router</text>
</g>
<!-- \\Alo\\Db\\AbstractDb -->
<g id="node13" class="node"><title>\\Alo\\Db\\AbstractDb</title>
<polygon fill="none" stroke="black" points="491.5,-2288 406.5,-2288 406.5,-2252 491.5,-2252 491.5,-2288"/>
<text text-anchor="start" x="415" y="-2273.7" font-family="Courier,monospace" font-size="11.00">«abstract»</text>
<text text-anchor="start" x="415" y="-2262.7" font-family="Courier,monospace" font-size="11.00">AbstractDb</text>
</g>
<!-- \\Alo\\Db\\MySQL -->
<g id="node14" class="node"><title>\\Alo\\Db\\MySQL</title>
<polygon fill="none" stroke="black" points="727,-2288 673,-2288 673,-2252 727,-2252 727,-2288"/>
<text text-anchor="middle" x="700" y="-2267.2" font-family="Courier,monospace" font-size="11.00">MySQL</text>
</g>
<!-- \\Alo\\Db\\MySQL&#45;&gt;\\Alo\\Db\\AbstractDb -->
<g id="edge19" class="edge"><title>\\Alo\\Db\\MySQL&#45;&gt;\\Alo\\Db\\AbstractDb</title>
<path fill="none" stroke="black" d="M672.823,-2270C632.438,-2270 554.156,-2270 501.974,-2270"/>
<polygon fill="none" stroke="black" points="501.904,-2266.5 491.904,-2270 501.904,-2273.5 501.904,-2266.5"/>
</g>
<!-- \\Alo\\Exception\\AbstractException -->
<g id="node16" class="node"><title>\\Alo\\Exception\\AbstractException</title>
<polygon fill="none" stroke="black" points="304,-2046 172,-2046 172,-2010 304,-2010 304,-2046"/>
<text text-anchor="start" x="204" y="-2031.7" font-family="Courier,monospace" font-size="11.00">«abstract»</text>
<text text-anchor="start" x="180.5" y="-2020.7" font-family="Courier,monospace" font-size="11.00">AbstractException</text>
</g>
<!-- \\Exception -->
<g id="node73" class="node"><title>\\Exception</title>
<ellipse fill="none" stroke="black" cx="50" cy="-1114" rx="50.0912" ry="18"/>
<text text-anchor="middle" x="50" y="-1110.3" font-family="Times New Roman,serif" font-size="14.00" fill="gray">\Exception</text>
</g>
<!-- \\Alo\\Exception\\AbstractException&#45;&gt;\\Exception -->
<g id="edge23" class="edge"><title>\\Alo\\Exception\\AbstractException&#45;&gt;\\Exception</title>
<path fill="none" stroke="black" d="M171.875,-2021.88C162.788,-2018.38 154.39,-2013.31 148,-2006 89.7323,-1939.35 58.4593,-1287.69 52.185,-1142.55"/>
<polygon fill="none" stroke="black" points="55.6691,-1142.1 51.7455,-1132.26 48.6754,-1142.4 55.6691,-1142.1"/>
</g>
<!-- \\Alo\\Exception\\ControllerException -->
<g id="node17" class="node"><title>\\Alo\\Exception\\ControllerException</title>
<polygon fill="none" stroke="black" points="521.5,-2208 376.5,-2208 376.5,-2172 521.5,-2172 521.5,-2208"/>
<text text-anchor="middle" x="449" y="-2187.2" font-family="Courier,monospace" font-size="11.00">ControllerException</text>
</g>
<!-- \\Alo\\Exception\\ControllerException&#45;&gt;\\Alo\\Exception\\AbstractException -->
<g id="edge25" class="edge"><title>\\Alo\\Exception\\ControllerException&#45;&gt;\\Alo\\Exception\\AbstractException</title>
<path fill="none" stroke="black" d="M387.459,-2171.82C381.723,-2169.21 376.138,-2166.27 371,-2163 324.495,-2133.39 282.121,-2084.42 258.523,-2054.3"/>
<polygon fill="none" stroke="black" points="261.258,-2052.12 252.377,-2046.34 255.717,-2056.4 261.258,-2052.12"/>
</g>
<!-- \\Alo\\Exception\\CronException -->
<g id="node18" class="node"><title>\\Alo\\Exception\\CronException</title>
<polygon fill="none" stroke="black" points="501,-2154 397,-2154 397,-2118 501,-2118 501,-2154"/>
<text text-anchor="middle" x="449" y="-2133.2" font-family="Courier,monospace" font-size="11.00">CronException</text>
</g>
<!-- \\Alo\\Exception\\CronException&#45;&gt;\\Alo\\Exception\\AbstractException -->
<g id="edge27" class="edge"><title>\\Alo\\Exception\\CronException&#45;&gt;\\Alo\\Exception\\AbstractException</title>
<path fill="none" stroke="black" d="M396.848,-2119.79C388.094,-2116.53 379.188,-2112.89 371,-2109 336.312,-2092.51 299.235,-2069.2 273.236,-2051.82"/>
<polygon fill="none" stroke="black" points="275.11,-2048.86 264.863,-2046.17 271.195,-2054.66 275.11,-2048.86"/>
</g>
<!-- \\Alo\\Exception\\ExtensionException -->
<g id="node19" class="node"><title>\\Alo\\Exception\\ExtensionException</title>
<polygon fill="none" stroke="black" points="518,-2100 380,-2100 380,-2064 518,-2064 518,-2100"/>
<text text-anchor="middle" x="449" y="-2079.2" font-family="Courier,monospace" font-size="11.00">ExtensionException</text>
</g>
<!-- \\Alo\\Exception\\ExtensionException&#45;&gt;\\Alo\\Exception\\AbstractException -->
<g id="edge29" class="edge"><title>\\Alo\\Exception\\ExtensionException&#45;&gt;\\Alo\\Exception\\AbstractException</title>
<path fill="none" stroke="black" d="M379.855,-2064.39C358.781,-2058.95 335.455,-2052.92 313.948,-2047.36"/>
<polygon fill="none" stroke="black" points="314.766,-2043.96 304.209,-2044.85 313.015,-2050.74 314.766,-2043.96"/>
</g>
<!-- \\Alo\\Exception\\FileException -->
<g id="node20" class="node"><title>\\Alo\\Exception\\FileException</title>
<polygon fill="none" stroke="black" points="501,-1992 397,-1992 397,-1956 501,-1956 501,-1992"/>
<text text-anchor="middle" x="449" y="-1971.2" font-family="Courier,monospace" font-size="11.00">FileException</text>
</g>
<!-- \\Alo\\Exception\\FileException&#45;&gt;\\Alo\\Exception\\AbstractException -->
<g id="edge31" class="edge"><title>\\Alo\\Exception\\FileException&#45;&gt;\\Alo\\Exception\\AbstractException</title>
<path fill="none" stroke="black" d="M396.873,-1987.21C372.01,-1993.63 341.638,-2001.48 314.198,-2008.57"/>
<polygon fill="none" stroke="black" points="313.043,-2005.25 304.237,-2011.14 314.794,-2012.03 313.043,-2005.25"/>
</g>
<!-- \\Alo\\Exception\\ProfilerException -->
<g id="node21" class="node"><title>\\Alo\\Exception\\ProfilerException</title>
<polygon fill="none" stroke="black" points="514.5,-2046 383.5,-2046 383.5,-2010 514.5,-2010 514.5,-2046"/>
<text text-anchor="middle" x="449" y="-2025.2" font-family="Courier,monospace" font-size="11.00">ProfilerException</text>
</g>
<!-- \\Alo\\Exception\\ProfilerException&#45;&gt;\\Alo\\Exception\\AbstractException -->
<g id="edge33" class="edge"><title>\\Alo\\Exception\\ProfilerException&#45;&gt;\\Alo\\Exception\\AbstractException</title>
<path fill="none" stroke="black" d="M383.302,-2028C361.47,-2028 336.913,-2028 314.331,-2028"/>
<polygon fill="none" stroke="black" points="314.112,-2024.5 304.112,-2028 314.112,-2031.5 314.112,-2024.5"/>
</g>
<!-- \\Alo\\Exception\\SFTPException -->
<g id="node22" class="node"><title>\\Alo\\Exception\\SFTPException</title>
<polygon fill="none" stroke="black" points="752,-1992 648,-1992 648,-1956 752,-1956 752,-1992"/>
<text text-anchor="middle" x="700" y="-1971.2" font-family="Courier,monospace" font-size="11.00">SFTPException</text>
</g>
<!-- \\Alo\\Exception\\SFTPException&#45;&gt;\\Alo\\Exception\\FileException -->
<g id="edge35" class="edge"><title>\\Alo\\Exception\\SFTPException&#45;&gt;\\Alo\\Exception\\FileException</title>
<path fill="none" stroke="black" d="M647.709,-1974C608.121,-1974 553.216,-1974 511.309,-1974"/>
<polygon fill="none" stroke="black" points="511.225,-1970.5 501.224,-1974 511.224,-1977.5 511.225,-1970.5"/>
</g>
<!-- \\Alo\\Exception\\TesterException -->
<g id="node23" class="node"><title>\\Alo\\Exception\\TesterException</title>
<polygon fill="none" stroke="black" points="508,-1938 390,-1938 390,-1902 508,-1902 508,-1938"/>
<text text-anchor="middle" x="449" y="-1917.2" font-family="Courier,monospace" font-size="11.00">TesterException</text>
</g>
<!-- \\Alo\\Exception\\TesterException&#45;&gt;\\Alo\\Exception\\AbstractException -->
<g id="edge37" class="edge"><title>\\Alo\\Exception\\TesterException&#45;&gt;\\Alo\\Exception\\AbstractException</title>
<path fill="none" stroke="black" d="M389.728,-1937.7C383.243,-1940.47 376.868,-1943.56 371,-1947 339.3,-1965.56 338.312,-1983.3 305.232,-2004.69"/>
<polygon fill="none" stroke="black" points="303.362,-2001.73 296.625,-2009.91 306.991,-2007.72 303.362,-2001.73"/>
</g>
<!-- \\Alo\\Session\\AbstractSession -->
<g id="node25" class="node"><title>\\Alo\\Session\\AbstractSession</title>
<polygon fill="none" stroke="black" points="508.5,-1831 389.5,-1831 389.5,-1795 508.5,-1795 508.5,-1831"/>
<text text-anchor="start" x="415" y="-1816.7" font-family="Courier,monospace" font-size="11.00">«abstract»</text>
<text text-anchor="start" x="398" y="-1805.7" font-family="Courier,monospace" font-size="11.00">AbstractSession</text>
</g>
<!-- \\Alo\\Session\\MemcachedSession -->
<g id="node26" class="node"><title>\\Alo\\Session\\MemcachedSession</title>
<polygon fill="none" stroke="black" points="762.5,-1858 637.5,-1858 637.5,-1822 762.5,-1822 762.5,-1858"/>
<text text-anchor="middle" x="700" y="-1837.2" font-family="Courier,monospace" font-size="11.00">MemcachedSession</text>
</g>
<!-- \\Alo\\Session\\MemcachedSession&#45;&gt;\\Alo\\Session\\AbstractSession -->
<g id="edge39" class="edge"><title>\\Alo\\Session\\MemcachedSession&#45;&gt;\\Alo\\Session\\AbstractSession</title>
<path fill="none" stroke="black" d="M637.449,-1833.33C601.512,-1829.43 556.078,-1824.5 518.941,-1820.48"/>
<polygon fill="none" stroke="black" points="519.021,-1816.96 508.702,-1819.37 518.266,-1823.92 519.021,-1816.96"/>
</g>
<!-- \\Alo\\Session\\SQLSession -->
<g id="node27" class="node"><title>\\Alo\\Session\\SQLSession</title>
<polygon fill="none" stroke="black" points="742,-1804 658,-1804 658,-1768 742,-1768 742,-1804"/>
<text text-anchor="middle" x="700" y="-1783.2" font-family="Courier,monospace" font-size="11.00">SQLSession</text>
</g>
<!-- \\Alo\\Session\\SQLSession&#45;&gt;\\Alo\\Session\\AbstractSession -->
<g id="edge41" class="edge"><title>\\Alo\\Session\\SQLSession&#45;&gt;\\Alo\\Session\\AbstractSession</title>
<path fill="none" stroke="black" d="M657.883,-1790.46C620.207,-1794.54 563.677,-1800.67 519.073,-1805.51"/>
<polygon fill="none" stroke="black" points="518.446,-1802.06 508.881,-1806.62 519.2,-1809.02 518.446,-1802.06"/>
</g>
<!-- \\Alo\\Statics\\Cookie -->
<g id="node29" class="node"><title>\\Alo\\Statics\\Cookie</title>
<polygon fill="none" stroke="black" points="728.5,-1724 671.5,-1724 671.5,-1688 728.5,-1688 728.5,-1724"/>
<text text-anchor="middle" x="700" y="-1703.2" font-family="Courier,monospace" font-size="11.00">Cookie</text>
</g>
<!-- \\Alo\\Statics\\Format -->
<g id="node30" class="node"><title>\\Alo\\Statics\\Format</title>
<polygon fill="none" stroke="black" points="728.5,-1670 671.5,-1670 671.5,-1634 728.5,-1634 728.5,-1670"/>
<text text-anchor="middle" x="700" y="-1649.2" font-family="Courier,monospace" font-size="11.00">Format</text>
</g>
<!-- \\Alo\\Test\\AbstractTester -->
<g id="node32" class="node"><title>\\Alo\\Test\\AbstractTester</title>
<polygon fill="none" stroke="black" points="505,-1590 393,-1590 393,-1554 505,-1554 505,-1590"/>
<text text-anchor="start" x="415" y="-1575.7" font-family="Courier,monospace" font-size="11.00">«abstract»</text>
<text text-anchor="start" x="401.5" y="-1564.7" font-family="Courier,monospace" font-size="11.00">AbstractTester</text>
</g>
<!-- \\Alo\\Test\\ClassTester -->
<g id="node33" class="node"><title>\\Alo\\Test\\ClassTester</title>
<polygon fill="none" stroke="black" points="745.5,-1590 654.5,-1590 654.5,-1554 745.5,-1554 745.5,-1590"/>
<text text-anchor="middle" x="700" y="-1569.2" font-family="Courier,monospace" font-size="11.00">ClassTester</text>
</g>
<!-- \\Alo\\Test\\ClassTester&#45;&gt;\\Alo\\Test\\AbstractTester -->
<g id="edge43" class="edge"><title>\\Alo\\Test\\ClassTester&#45;&gt;\\Alo\\Test\\AbstractTester</title>
<path fill="none" stroke="black" d="M654.484,-1572C615.681,-1572 558.901,-1572 515.014,-1572"/>
<polygon fill="none" stroke="black" points="515.008,-1568.5 505.008,-1572 515.008,-1575.5 515.008,-1568.5"/>
</g>
<!-- \\Alo\\Validators\\Form -->
<g id="node35" class="node"><title>\\Alo\\Validators\\Form</title>
<polygon fill="none" stroke="black" points="727,-1510 673,-1510 673,-1474 727,-1474 727,-1510"/>
<text text-anchor="middle" x="700" y="-1489.2" font-family="Courier,monospace" font-size="11.00">Form</text>
</g>
<!-- \\Alo\\Cron -->
<g id="node36" class="node"><title>\\Alo\\Cron</title>
<polygon fill="none" stroke="black" points="727,-1456 673,-1456 673,-1420 727,-1420 727,-1456"/>
<text text-anchor="middle" x="700" y="-1435.2" font-family="Courier,monospace" font-size="11.00">Cron</text>
</g>
<!-- \\Alo\\cURL -->
<g id="node37" class="node"><title>\\Alo\\cURL</title>
<polygon fill="none" stroke="black" points="727,-1402 673,-1402 673,-1366 727,-1366 727,-1402"/>
<text text-anchor="middle" x="700" y="-1381.2" font-family="Courier,monospace" font-size="11.00">cURL</text>
</g>
<!-- \\Alo\\Email -->
<g id="node38" class="node"><title>\\Alo\\Email</title>
<polygon fill="none" stroke="black" points="727,-1348 673,-1348 673,-1312 727,-1312 727,-1348"/>
<text text-anchor="middle" x="700" y="-1327.2" font-family="Courier,monospace" font-size="11.00">Email</text>
</g>
<!-- \\PHPMailer -->
<g id="node45" class="node"><title>\\PHPMailer</title>
<polygon fill="none" stroke="black" points="487.5,-1080 410.5,-1080 410.5,-1044 487.5,-1044 487.5,-1080"/>
<text text-anchor="middle" x="449" y="-1059.2" font-family="Courier,monospace" font-size="11.00">PHPMailer</text>
</g>
<!-- \\Alo\\Email&#45;&gt;\\PHPMailer -->
<g id="edge21" class="edge"><title>\\Alo\\Email&#45;&gt;\\PHPMailer</title>
<path fill="none" stroke="black" d="M672.887,-1328.78C650.066,-1326.52 617.065,-1320.24 594,-1303 519.314,-1247.17 475.833,-1140.18 458.629,-1089.69"/>
<polygon fill="none" stroke="black" points="461.916,-1088.48 455.446,-1080.09 455.272,-1090.68 461.916,-1088.48"/>
</g>
<!-- \\Alo\\File -->
<g id="node39" class="node"><title>\\Alo\\File</title>
<polygon fill="none" stroke="black" points="727,-1294 673,-1294 673,-1258 727,-1258 727,-1294"/>
<text text-anchor="middle" x="700" y="-1273.2" font-family="Courier,monospace" font-size="11.00">File</text>
</g>
<!-- \\Alo\\Profiler -->
<g id="node40" class="node"><title>\\Alo\\Profiler</title>
<polygon fill="none" stroke="black" points="735.5,-1240 664.5,-1240 664.5,-1204 735.5,-1204 735.5,-1240"/>
<text text-anchor="middle" x="700" y="-1219.2" font-family="Courier,monospace" font-size="11.00">Profiler</text>
</g>
<!-- \\Alo\\SFTP -->
<g id="node41" class="node"><title>\\Alo\\SFTP</title>
<polygon fill="none" stroke="black" points="727,-1186 673,-1186 673,-1150 727,-1150 727,-1186"/>
<text text-anchor="middle" x="700" y="-1165.2" font-family="Courier,monospace" font-size="11.00">SFTP</text>
</g>
<!-- \\Alo\\Handler -->
<g id="node42" class="node"><title>\\Alo\\Handler</title>
<polygon fill="none" stroke="black" points="742.5,-1132 657.5,-1132 657.5,-1096 742.5,-1096 742.5,-1132"/>
<text text-anchor="start" x="666" y="-1117.7" font-family="Courier,monospace" font-size="11.00">«abstract»</text>
<text text-anchor="start" x="676" y="-1106.7" font-family="Courier,monospace" font-size="11.00">Handler</text>
</g>
<!-- \\Alo -->
<g id="node43" class="node"><title>\\Alo</title>
<polygon fill="none" stroke="black" points="727,-1078 673,-1078 673,-1042 727,-1042 727,-1078"/>
<text text-anchor="middle" x="700" y="-1057.2" font-family="Courier,monospace" font-size="11.00">Alo</text>
</g>
<!-- \\Log -->
<g id="node44" class="node"><title>\\Log</title>
<polygon fill="none" stroke="black" points="742.5,-1024 657.5,-1024 657.5,-988 742.5,-988 742.5,-1024"/>
<text text-anchor="start" x="666" y="-1009.7" font-family="Courier,monospace" font-size="11.00">«abstract»</text>
<text text-anchor="start" x="689.5" y="-998.7" font-family="Courier,monospace" font-size="11.00">Log</text>
</g>
<!-- \\phpmailerException -->
<g id="node46" class="node"><title>\\phpmailerException</title>
<polygon fill="none" stroke="black" points="769,-52 631,-52 631,-16 769,-16 769,-52"/>
<text text-anchor="middle" x="700" y="-31.2" font-family="Courier,monospace" font-size="11.00">phpmailerException</text>
</g>
<!-- \\phpmailerException&#45;&gt;\\Exception -->
<g id="edge45" class="edge"><title>\\phpmailerException&#45;&gt;\\Exception</title>
<path fill="none" stroke="black" d="M630.654,-45.1741C510.058,-68.8766 261.541,-136.444 148,-304 58.931,-435.442 51.4741,-957.987 50.9955,-1085.72"/>
<polygon fill="none" stroke="black" points="47.4952,-1085.85 50.9696,-1095.86 54.4952,-1085.87 47.4952,-1085.85"/>
</g>
<!-- \\POP3 -->
<g id="node47" class="node"><title>\\POP3</title>
<polygon fill="none" stroke="black" points="727,-916 673,-916 673,-880 727,-880 727,-916"/>
<text text-anchor="middle" x="700" y="-895.2" font-family="Courier,monospace" font-size="11.00">POP3</text>
</g>
<!-- \\SMTP -->
<g id="node48" class="node"><title>\\SMTP</title>
<polygon fill="none" stroke="black" points="727,-862 673,-862 673,-826 727,-826 727,-862"/>
<text text-anchor="middle" x="700" y="-841.2" font-family="Courier,monospace" font-size="11.00">SMTP</text>
</g>
<!-- \\EasyPeasyICS -->
<g id="node49" class="node"><title>\\EasyPeasyICS</title>
<polygon fill="none" stroke="black" points="749,-808 651,-808 651,-772 749,-772 749,-808"/>
<text text-anchor="middle" x="700" y="-787.2" font-family="Courier,monospace" font-size="11.00">EasyPeasyICS</text>
</g>
<!-- \\ntlm_sasl_client_class -->
<g id="node50" class="node"><title>\\ntlm_sasl_client_class</title>
<polygon fill="none" stroke="black" points="782.5,-754 617.5,-754 617.5,-718 782.5,-718 782.5,-754"/>
<text text-anchor="middle" x="700" y="-733.2" font-family="Courier,monospace" font-size="11.00">ntlm_sasl_client_class</text>
</g>
<!-- \\Kint_Decorators_Concise -->
<g id="node51" class="node"><title>\\Kint_Decorators_Concise</title>
<polygon fill="none" stroke="black" points="786,-700 614,-700 614,-664 786,-664 786,-700"/>
<text text-anchor="middle" x="700" y="-679.2" font-family="Courier,monospace" font-size="11.00">Kint_Decorators_Concise</text>
</g>
<!-- \\Kint -->
<g id="node66" class="node"><title>\\Kint</title>
<polygon fill="none" stroke="black" points="476,-700 422,-700 422,-664 476,-664 476,-700"/>
<text text-anchor="middle" x="449" y="-679.2" font-family="Courier,monospace" font-size="11.00">Kint</text>
</g>
<!-- \\Kint_Decorators_Concise&#45;&gt;\\Kint -->
<g id="edge47" class="edge"><title>\\Kint_Decorators_Concise&#45;&gt;\\Kint</title>
<path fill="none" stroke="black" d="M613.657,-682C570.211,-682 519.683,-682 486.393,-682"/>
<polygon fill="none" stroke="black" points="486.222,-678.5 476.222,-682 486.222,-685.5 486.222,-678.5"/>
</g>
<!-- \\Kint_Decorators_Plain -->
<g id="node52" class="node"><title>\\Kint_Decorators_Plain</title>
<polygon fill="none" stroke="black" points="779,-646 621,-646 621,-610 779,-610 779,-646"/>
<text text-anchor="middle" x="700" y="-625.2" font-family="Courier,monospace" font-size="11.00">Kint_Decorators_Plain</text>
</g>
<!-- \\Kint_Decorators_Plain&#45;&gt;\\Kint -->
<g id="edge49" class="edge"><title>\\Kint_Decorators_Plain&#45;&gt;\\Kint</title>
<path fill="none" stroke="black" d="M620.898,-644.938C575.724,-654.735 521.04,-666.594 485.9,-674.215"/>
<polygon fill="none" stroke="black" points="485.124,-670.801 476.093,-676.341 486.607,-677.642 485.124,-670.801"/>
</g>
<!-- \\Kint_Decorators_Rich -->
<g id="node53" class="node"><title>\\Kint_Decorators_Rich</title>
<polygon fill="none" stroke="black" points="776,-970 624,-970 624,-934 776,-934 776,-970"/>
<text text-anchor="middle" x="700" y="-949.2" font-family="Courier,monospace" font-size="11.00">Kint_Decorators_Rich</text>
</g>
<!-- \\Kint_Decorators_Rich&#45;&gt;\\Kint -->
<g id="edge51" class="edge"><title>\\Kint_Decorators_Rich&#45;&gt;\\Kint</title>
<path fill="none" stroke="black" d="M623.941,-940.483C613.248,-936.693 602.882,-931.665 594,-925 518.959,-868.688 475.654,-760.824 458.561,-709.914"/>
<polygon fill="none" stroke="black" points="461.832,-708.657 455.4,-700.238 455.179,-710.831 461.832,-708.657"/>
</g>
<!-- \\Kint_Parsers_ArrayObject -->
<g id="node54" class="node"><title>\\Kint_Parsers_ArrayObject</title>
<polygon fill="none" stroke="black" points="789.5,-592 610.5,-592 610.5,-556 789.5,-556 789.5,-592"/>
<text text-anchor="middle" x="700" y="-571.2" font-family="Courier,monospace" font-size="11.00">Kint_Parsers_ArrayObject</text>
</g>
<!-- \\kintParser -->
<g id="node65" class="node"><title>\\kintParser</title>
<polygon fill="none" stroke="black" points="491.5,-349 406.5,-349 406.5,-313 491.5,-313 491.5,-349"/>
<text text-anchor="start" x="415" y="-334.7" font-family="Courier,monospace" font-size="11.00">«abstract»</text>
<text text-anchor="start" x="415" y="-323.7" font-family="Courier,monospace" font-size="11.00">kintParser</text>
</g>
<!-- \\Kint_Parsers_ArrayObject&#45;&gt;\\kintParser -->
<g id="edge53" class="edge"><title>\\Kint_Parsers_ArrayObject&#45;&gt;\\kintParser</title>
<path fill="none" stroke="black" d="M610.315,-556.414C604.569,-553.712 599.065,-550.595 594,-547 525.005,-498.031 479.765,-404.73 460.542,-358.446"/>
<polygon fill="none" stroke="black" points="463.734,-357.005 456.731,-349.054 457.247,-359.636 463.734,-357.005"/>
</g>
<!-- \\Kint_Parsers_ClassMethods -->
<g id="node55" class="node"><title>\\Kint_Parsers_ClassMethods</title>
<polygon fill="none" stroke="black" points="792.5,-538 607.5,-538 607.5,-502 792.5,-502 792.5,-538"/>
<text text-anchor="middle" x="700" y="-517.2" font-family="Courier,monospace" font-size="11.00">Kint_Parsers_ClassMethods</text>
</g>
<!-- \\Kint_Parsers_ClassMethods&#45;&gt;\\kintParser -->
<g id="edge55" class="edge"><title>\\Kint_Parsers_ClassMethods&#45;&gt;\\kintParser</title>
<path fill="none" stroke="black" d="M611.656,-501.936C605.499,-499.344 599.543,-496.383 594,-493 537.145,-458.304 490.072,-394.143 466.433,-357.848"/>
<polygon fill="none" stroke="black" points="469.274,-355.793 460.936,-349.256 463.377,-359.566 469.274,-355.793"/>
</g>
<!-- \\Kint_Parsers_ClassStatics -->
<g id="node56" class="node"><title>\\Kint_Parsers_ClassStatics</title>
<polygon fill="none" stroke="black" points="792.5,-484 607.5,-484 607.5,-448 792.5,-448 792.5,-484"/>
<text text-anchor="middle" x="700" y="-463.2" font-family="Courier,monospace" font-size="11.00">Kint_Parsers_ClassStatics</text>
</g>
<!-- \\Kint_Parsers_ClassStatics&#45;&gt;\\kintParser -->
<g id="edge57" class="edge"><title>\\Kint_Parsers_ClassStatics&#45;&gt;\\kintParser</title>
<path fill="none" stroke="black" d="M615.938,-447.923C608.379,-445.303 600.957,-442.34 594,-439 548.873,-417.335 503.839,-380.496 476.45,-355.956"/>
<polygon fill="none" stroke="black" points="478.629,-353.206 468.872,-349.075 473.923,-358.389 478.629,-353.206"/>
</g>
<!-- \\Kint_Parsers_Color -->
<g id="node57" class="node"><title>\\Kint_Parsers_Color</title>
<polygon fill="none" stroke="black" points="769,-430 631,-430 631,-394 769,-394 769,-430"/>
<text text-anchor="middle" x="700" y="-409.2" font-family="Courier,monospace" font-size="11.00">Kint_Parsers_Color</text>
</g>
<!-- \\Kint_Parsers_Color&#45;&gt;\\kintParser -->
<g id="edge59" class="edge"><title>\\Kint_Parsers_Color&#45;&gt;\\kintParser</title>
<path fill="none" stroke="black" d="M630.918,-395.628C618.567,-392.336 605.848,-388.733 594,-385 562.791,-375.167 528.463,-362.373 501.153,-351.707"/>
<polygon fill="none" stroke="black" points="502.39,-348.433 491.803,-348.031 499.829,-354.947 502.39,-348.433"/>
</g>
<!-- \\Kint_Parsers_Json -->
<g id="node58" class="node"><title>\\Kint_Parsers_Json</title>
<polygon fill="none" stroke="black" points="765.5,-376 634.5,-376 634.5,-340 765.5,-340 765.5,-376"/>
<text text-anchor="middle" x="700" y="-355.2" font-family="Courier,monospace" font-size="11.00">Kint_Parsers_Json</text>
</g>
<!-- \\Kint_Parsers_Json&#45;&gt;\\kintParser -->
<g id="edge61" class="edge"><title>\\Kint_Parsers_Json&#45;&gt;\\kintParser</title>
<path fill="none" stroke="black" d="M634.228,-350.977C592.958,-346.501 540.212,-340.782 501.744,-336.611"/>
<polygon fill="none" stroke="black" points="502.11,-333.13 491.791,-335.532 501.355,-340.089 502.11,-333.13"/>
</g>
<!-- \\Kint_Parsers_Microtime -->
<g id="node59" class="node"><title>\\Kint_Parsers_Microtime</title>
<polygon fill="none" stroke="black" points="782.5,-322 617.5,-322 617.5,-286 782.5,-286 782.5,-322"/>
<text text-anchor="middle" x="700" y="-301.2" font-family="Courier,monospace" font-size="11.00">Kint_Parsers_Microtime</text>
</g>
<!-- \\Kint_Parsers_Microtime&#45;&gt;\\kintParser -->
<g id="edge63" class="edge"><title>\\Kint_Parsers_Microtime&#45;&gt;\\kintParser</title>
<path fill="none" stroke="black" d="M617.468,-312.841C579.293,-316.98 534.974,-321.786 501.521,-325.413"/>
<polygon fill="none" stroke="black" points="501.071,-321.942 491.506,-326.499 501.825,-328.901 501.071,-321.942"/>
</g>
<!-- \\Kint_Parsers_SplFileInfo -->
<g id="node60" class="node"><title>\\Kint_Parsers_SplFileInfo</title>
<polygon fill="none" stroke="black" points="789.5,-268 610.5,-268 610.5,-232 789.5,-232 789.5,-268"/>
<text text-anchor="middle" x="700" y="-247.2" font-family="Courier,monospace" font-size="11.00">Kint_Parsers_SplFileInfo</text>
</g>
<!-- \\Kint_Parsers_SplFileInfo&#45;&gt;\\kintParser -->
<g id="edge65" class="edge"><title>\\Kint_Parsers_SplFileInfo&#45;&gt;\\kintParser</title>
<path fill="none" stroke="black" d="M622.564,-268.061C612.875,-270.816 603.155,-273.813 594,-277 560.928,-288.511 554.806,-296.75 522,-309 515.501,-311.427 508.601,-313.793 501.747,-316.02"/>
<polygon fill="none" stroke="black" points="500.266,-312.817 491.789,-319.172 502.379,-319.491 500.266,-312.817"/>
</g>
<!-- \\Kint_Parsers_SplObjectStorage -->
<g id="node61" class="node"><title>\\Kint_Parsers_SplObjectStorage</title>
<polygon fill="none" stroke="black" points="806,-214 594,-214 594,-178 806,-178 806,-214"/>
<text text-anchor="middle" x="700" y="-193.2" font-family="Courier,monospace" font-size="11.00">Kint_Parsers_SplObjectStorage</text>
</g>
<!-- \\Kint_Parsers_SplObjectStorage&#45;&gt;\\kintParser -->
<g id="edge67" class="edge"><title>\\Kint_Parsers_SplObjectStorage&#45;&gt;\\kintParser</title>
<path fill="none" stroke="black" d="M611.01,-214.111C605.069,-216.69 599.333,-219.636 594,-223 551.838,-249.594 563.555,-281.467 522,-309 515.783,-313.119 508.76,-316.496 501.599,-319.255"/>
<polygon fill="none" stroke="black" points="500.114,-316.065 491.812,-322.647 502.407,-322.679 500.114,-316.065"/>
</g>
<!-- \\Kint_Parsers_Timestamp -->
<g id="node62" class="node"><title>\\Kint_Parsers_Timestamp</title>
<polygon fill="none" stroke="black" points="782.5,-160 617.5,-160 617.5,-124 782.5,-124 782.5,-160"/>
<text text-anchor="middle" x="700" y="-139.2" font-family="Courier,monospace" font-size="11.00">Kint_Parsers_Timestamp</text>
</g>
<!-- \\Kint_Parsers_Timestamp&#45;&gt;\\kintParser -->
<g id="edge69" class="edge"><title>\\Kint_Parsers_Timestamp&#45;&gt;\\kintParser</title>
<path fill="none" stroke="black" d="M617.407,-155.456C608.996,-158.984 600.987,-163.422 594,-169 539.32,-212.654 575.687,-264.131 522,-309 515.936,-314.068 508.719,-317.97 501.233,-320.973"/>
<polygon fill="none" stroke="black" points="499.956,-317.711 491.672,-324.316 502.267,-324.319 499.956,-317.711"/>
</g>
<!-- \\Kint_Parsers_Xml -->
<g id="node63" class="node"><title>\\Kint_Parsers_Xml</title>
<polygon fill="none" stroke="black" points="762.5,-106 637.5,-106 637.5,-70 762.5,-70 762.5,-106"/>
<text text-anchor="middle" x="700" y="-85.2" font-family="Courier,monospace" font-size="11.00">Kint_Parsers_Xml</text>
</g>
<!-- \\Kint_Parsers_Xml&#45;&gt;\\kintParser -->
<g id="edge71" class="edge"><title>\\Kint_Parsers_Xml&#45;&gt;\\kintParser</title>
<path fill="none" stroke="black" d="M637.494,-93.5688C621.819,-97.5594 606.024,-104.163 594,-115 525.686,-176.574 588.916,-245.909 522,-309 516.05,-314.61 508.708,-318.791 501.01,-321.908"/>
<polygon fill="none" stroke="black" points="499.812,-318.619 491.513,-325.206 502.108,-325.232 499.812,-318.619"/>
</g>
<!-- \\kintVariableData -->
<g id="node64" class="node"><title>\\kintVariableData</title>
<polygon fill="none" stroke="black" points="300.5,-349 175.5,-349 175.5,-313 300.5,-313 300.5,-349"/>
<text text-anchor="middle" x="238" y="-328.2" font-family="Courier,monospace" font-size="11.00">kintVariableData</text>
</g>
<!-- \\kintParser&#45;&gt;\\kintVariableData -->
<g id="edge73" class="edge"><title>\\kintParser&#45;&gt;\\kintVariableData</title>
<path fill="none" stroke="black" d="M406.458,-331C379.174,-331 342.761,-331 310.859,-331"/>
<polygon fill="none" stroke="black" points="310.677,-327.5 300.677,-331 310.677,-334.5 310.677,-327.5"/>
</g>
</g>
</svg>
