<?xml version="1.0" encoding="UTF-8" standalone="no"?>
<!DOCTYPE svg PUBLIC "-//W3C//DTD SVG 1.1//EN"
 "http://www.w3.org/Graphics/SVG/1.1/DTD/svg11.dtd">
<!-- Generated by graphviz version 2.28.0 (20110507.0327)
 -->
<!-- Title: G Pages: 1 -->
<svg width="830pt" height="2780pt"
 viewBox="0.00 0.00 830.00 2780.00" xmlns="http://www.w3.org/2000/svg" xmlns:xlink="http://www.w3.org/1999/xlink">
<g id="graph1" class="graph" transform="scale(1 1) rotate(0) translate(4 2776)">
<title>G</title>
<polygon fill="white" stroke="white" points="-4,5 -4,-2776 827,-2776 827,5 -4,5"/>
<g id="graph2" class="cluster"><title>cluster_Global</title>
<polyline fill="none" stroke="gray" points="160,-8 802,-8 "/>
<path fill="none" stroke="gray" d="M802,-8C808,-8 814,-14 814,-20"/>
<polyline fill="none" stroke="gray" points="814,-20 814,-2752 "/>
<path fill="none" stroke="gray" d="M814,-2752C814,-2758 808,-2764 802,-2764"/>
<polyline fill="none" stroke="gray" points="802,-2764 160,-2764 "/>
<path fill="none" stroke="gray" d="M160,-2764C154,-2764 148,-2758 148,-2752"/>
<polyline fill="none" stroke="gray" points="148,-2752 148,-20 "/>
<path fill="none" stroke="gray" d="M148,-20C148,-14 154,-8 160,-8"/>
<text text-anchor="middle" x="481" y="-2751.2" font-family="Times New Roman,serif" font-size="11.00" fill="gray">Global</text>
</g>
<g id="graph3" class="cluster"><title>cluster_\Alo</title>
<polyline fill="none" stroke="gray" points="168,-1168 767,-1168 "/>
<path fill="none" stroke="gray" d="M767,-1168C773,-1168 779,-1174 779,-1180"/>
<polyline fill="none" stroke="gray" points="779,-1180 779,-2680 "/>
<path fill="none" stroke="gray" d="M779,-2680C779,-2686 773,-2692 767,-2692"/>
<polyline fill="none" stroke="gray" points="767,-2692 168,-2692 "/>
<path fill="none" stroke="gray" d="M168,-2692C162,-2692 156,-2686 156,-2680"/>
<polyline fill="none" stroke="gray" points="156,-2680 156,-1180 "/>
<path fill="none" stroke="gray" d="M156,-1180C156,-1174 162,-1168 168,-1168"/>
<text text-anchor="middle" x="467.5" y="-2679.2" font-family="Times New Roman,serif" font-size="11.00" fill="gray">Alo</text>
</g>
<g id="graph4" class="cluster"><title>cluster_\Alo\Exception</title>
<polyline fill="none" stroke="gray" points="176,-2322 748,-2322 "/>
<path fill="none" stroke="gray" d="M748,-2322C754,-2322 760,-2328 760,-2334"/>
<polyline fill="none" stroke="gray" points="760,-2334 760,-2652 "/>
<path fill="none" stroke="gray" d="M760,-2652C760,-2658 754,-2664 748,-2664"/>
<polyline fill="none" stroke="gray" points="748,-2664 176,-2664 "/>
<path fill="none" stroke="gray" d="M176,-2664C170,-2664 164,-2658 164,-2652"/>
<polyline fill="none" stroke="gray" points="164,-2652 164,-2334 "/>
<path fill="none" stroke="gray" d="M164,-2334C164,-2328 170,-2322 176,-2322"/>
<text text-anchor="middle" x="462" y="-2651.2" font-family="Times New Roman,serif" font-size="11.00" fill="gray">Exception</text>
</g>
<g id="graph5" class="cluster"><title>cluster_\Alo\Controller</title>
<polyline fill="none" stroke="gray" points="383,-1760 725,-1760 "/>
<path fill="none" stroke="gray" d="M725,-1760C731,-1760 737,-1766 737,-1772"/>
<polyline fill="none" stroke="gray" points="737,-1772 737,-1874 "/>
<path fill="none" stroke="gray" d="M737,-1874C737,-1880 731,-1886 725,-1886"/>
<polyline fill="none" stroke="gray" points="725,-1886 383,-1886 "/>
<path fill="none" stroke="gray" d="M383,-1886C377,-1886 371,-1880 371,-1874"/>
<polyline fill="none" stroke="gray" points="371,-1874 371,-1772 "/>
<path fill="none" stroke="gray" d="M371,-1772C371,-1766 377,-1760 383,-1760"/>
<text text-anchor="middle" x="554" y="-1873.2" font-family="Times New Roman,serif" font-size="11.00" fill="gray">Controller</text>
</g>
<g id="graph6" class="cluster"><title>cluster_\Alo\Session</title>
<polyline fill="none" stroke="gray" points="393,-2188 759,-2188 "/>
<path fill="none" stroke="gray" d="M759,-2188C765,-2188 771,-2194 771,-2200"/>
<polyline fill="none" stroke="gray" points="771,-2200 771,-2302 "/>
<path fill="none" stroke="gray" d="M771,-2302C771,-2308 765,-2314 759,-2314"/>
<polyline fill="none" stroke="gray" points="759,-2314 393,-2314 "/>
<path fill="none" stroke="gray" d="M393,-2314C387,-2314 381,-2308 381,-2302"/>
<polyline fill="none" stroke="gray" points="381,-2302 381,-2200 "/>
<path fill="none" stroke="gray" d="M381,-2200C381,-2194 387,-2188 393,-2188"/>
<text text-anchor="middle" x="576" y="-2301.2" font-family="Times New Roman,serif" font-size="11.00" fill="gray">Session</text>
</g>
<g id="graph7" class="cluster"><title>cluster_\Alo\Db</title>
<polyline fill="none" stroke="gray" points="410,-2108 723,-2108 "/>
<path fill="none" stroke="gray" d="M723,-2108C729,-2108 735,-2114 735,-2120"/>
<polyline fill="none" stroke="gray" points="735,-2120 735,-2168 "/>
<path fill="none" stroke="gray" d="M735,-2168C735,-2174 729,-2180 723,-2180"/>
<polyline fill="none" stroke="gray" points="723,-2180 410,-2180 "/>
<path fill="none" stroke="gray" d="M410,-2180C404,-2180 398,-2174 398,-2168"/>
<polyline fill="none" stroke="gray" points="398,-2168 398,-2120 "/>
<path fill="none" stroke="gray" d="M398,-2120C398,-2114 404,-2108 410,-2108"/>
<text text-anchor="middle" x="566.5" y="-2167.2" font-family="Times New Roman,serif" font-size="11.00" fill="gray">Db</text>
</g>
<g id="graph8" class="cluster"><title>cluster_\Alo\Test</title>
<polyline fill="none" stroke="gray" points="397,-1974 752,-1974 "/>
<path fill="none" stroke="gray" d="M752,-1974C758,-1974 764,-1980 764,-1986"/>
<polyline fill="none" stroke="gray" points="764,-1986 764,-2088 "/>
<path fill="none" stroke="gray" d="M764,-2088C764,-2094 758,-2100 752,-2100"/>
<polyline fill="none" stroke="gray" points="752,-2100 397,-2100 "/>
<path fill="none" stroke="gray" d="M397,-2100C391,-2100 385,-2094 385,-2088"/>
<polyline fill="none" stroke="gray" points="385,-2088 385,-1986 "/>
<path fill="none" stroke="gray" d="M385,-1986C385,-1980 391,-1974 397,-1974"/>
<text text-anchor="middle" x="574.5" y="-2087.2" font-family="Times New Roman,serif" font-size="11.00" fill="gray">Test</text>
</g>
<g id="graph9" class="cluster"><title>cluster_\Alo\Cache</title>
<polyline fill="none" stroke="gray" points="400,-1894 759,-1894 "/>
<path fill="none" stroke="gray" d="M759,-1894C765,-1894 771,-1900 771,-1906"/>
<polyline fill="none" stroke="gray" points="771,-1906 771,-1954 "/>
<path fill="none" stroke="gray" d="M771,-1954C771,-1960 765,-1966 759,-1966"/>
<polyline fill="none" stroke="gray" points="759,-1966 400,-1966 "/>
<path fill="none" stroke="gray" d="M400,-1966C394,-1966 388,-1960 388,-1954"/>
<polyline fill="none" stroke="gray" points="388,-1954 388,-1906 "/>
<path fill="none" stroke="gray" d="M388,-1906C388,-1900 394,-1894 400,-1894"/>
<text text-anchor="middle" x="579.5" y="-1953.2" font-family="Times New Roman,serif" font-size="11.00" fill="gray">Cache</text>
</g>
<g id="graph10" class="cluster"><title>cluster_\Alo\Validators</title>
<polyline fill="none" stroke="gray" points="677,-1680 723,-1680 "/>
<path fill="none" stroke="gray" d="M723,-1680C729,-1680 735,-1686 735,-1692"/>
<polyline fill="none" stroke="gray" points="735,-1692 735,-1740 "/>
<path fill="none" stroke="gray" d="M735,-1740C735,-1746 729,-1752 723,-1752"/>
<polyline fill="none" stroke="gray" points="723,-1752 677,-1752 "/>
<path fill="none" stroke="gray" d="M677,-1752C671,-1752 665,-1746 665,-1740"/>
<polyline fill="none" stroke="gray" points="665,-1740 665,-1692 "/>
<path fill="none" stroke="gray" d="M665,-1692C665,-1686 671,-1680 677,-1680"/>
<text text-anchor="middle" x="700" y="-1739.2" font-family="Times New Roman,serif" font-size="11.00" fill="gray">Validators</text>
</g>
<g id="graph11" class="cluster"><title>cluster_\Alo\Statics</title>
<polyline fill="none" stroke="gray" points="675,-1546 725,-1546 "/>
<path fill="none" stroke="gray" d="M725,-1546C731,-1546 737,-1552 737,-1558"/>
<polyline fill="none" stroke="gray" points="737,-1558 737,-1660 "/>
<path fill="none" stroke="gray" d="M737,-1660C737,-1666 731,-1672 725,-1672"/>
<polyline fill="none" stroke="gray" points="725,-1672 675,-1672 "/>
<path fill="none" stroke="gray" d="M675,-1672C669,-1672 663,-1666 663,-1660"/>
<polyline fill="none" stroke="gray" points="663,-1660 663,-1558 "/>
<path fill="none" stroke="gray" d="M663,-1558C663,-1552 669,-1546 675,-1546"/>
<text text-anchor="middle" x="700" y="-1659.2" font-family="Times New Roman,serif" font-size="11.00" fill="gray">Statics</text>
</g>
<g id="graph12" class="cluster"><title>cluster_\Controller</title>
<polyline fill="none" stroke="gray" points="675,-1088 725,-1088 "/>
<path fill="none" stroke="gray" d="M725,-1088C731,-1088 737,-1094 737,-1100"/>
<polyline fill="none" stroke="gray" points="737,-1100 737,-1148 "/>
<path fill="none" stroke="gray" d="M737,-1148C737,-1154 731,-1160 725,-1160"/>
<polyline fill="none" stroke="gray" points="725,-1160 675,-1160 "/>
<path fill="none" stroke="gray" d="M675,-1160C669,-1160 663,-1154 663,-1148"/>
<polyline fill="none" stroke="gray" points="663,-1148 663,-1100 "/>
<path fill="none" stroke="gray" d="M663,-1100C663,-1094 669,-1088 675,-1088"/>
<text text-anchor="middle" x="700" y="-1147.2" font-family="Times New Roman,serif" font-size="11.00" fill="gray">Controller</text>
</g>
<!-- \\Alo\\Exception\\AbstractException -->
<g id="node4" class="node"><title>\\Alo\\Exception\\AbstractException</title>
<polygon fill="none" stroke="black" points="304,-2474 172,-2474 172,-2438 304,-2438 304,-2474"/>
<text text-anchor="start" x="204" y="-2459.7" font-family="Courier,monospace" font-size="11.00">«abstract»</text>
<text text-anchor="start" x="180.5" y="-2448.7" font-family="Courier,monospace" font-size="11.00">AbstractException</text>
</g>
<!-- \\Exception -->
<g id="node69" class="node"><title>\\Exception</title>
<ellipse fill="none" stroke="black" cx="50" cy="-1314" rx="50.0912" ry="18"/>
<text text-anchor="middle" x="50" y="-1310.3" font-family="Times New Roman,serif" font-size="14.00" fill="gray">\Exception</text>
</g>
<!-- \\Alo\\Exception\\AbstractException&#45;&gt;\\Exception -->
<g id="edge13" class="edge"><title>\\Alo\\Exception\\AbstractException&#45;&gt;\\Exception</title>
<path fill="none" stroke="black" d="M171.735,-2450C162.666,-2446.49 154.31,-2441.38 148,-2434 74.9235,-2348.54 54.8086,-1509.31 51.5219,-1342.68"/>
<polygon fill="none" stroke="black" points="55.0135,-1342.2 51.3215,-1332.27 48.0148,-1342.34 55.0135,-1342.2"/>
</g>
<!-- \\Alo\\Exception\\ExtensionException -->
<g id="node5" class="node"><title>\\Alo\\Exception\\ExtensionException</title>
<polygon fill="none" stroke="black" points="518,-2636 380,-2636 380,-2600 518,-2600 518,-2636"/>
<text text-anchor="middle" x="449" y="-2615.2" font-family="Courier,monospace" font-size="11.00">ExtensionException</text>
</g>
<!-- \\Alo\\Exception\\ExtensionException&#45;&gt;\\Alo\\Exception\\AbstractException -->
<g id="edge17" class="edge"><title>\\Alo\\Exception\\ExtensionException&#45;&gt;\\Alo\\Exception\\AbstractException</title>
<path fill="none" stroke="black" d="M387.459,-2599.82C381.723,-2597.21 376.138,-2594.27 371,-2591 324.495,-2561.39 282.121,-2512.42 258.523,-2482.3"/>
<polygon fill="none" stroke="black" points="261.258,-2480.12 252.377,-2474.34 255.717,-2484.4 261.258,-2480.12"/>
</g>
<!-- \\Alo\\Exception\\ProfilerException -->
<g id="node6" class="node"><title>\\Alo\\Exception\\ProfilerException</title>
<polygon fill="none" stroke="black" points="514.5,-2582 383.5,-2582 383.5,-2546 514.5,-2546 514.5,-2582"/>
<text text-anchor="middle" x="449" y="-2561.2" font-family="Courier,monospace" font-size="11.00">ProfilerException</text>
</g>
<!-- \\Alo\\Exception\\ProfilerException&#45;&gt;\\Alo\\Exception\\AbstractException -->
<g id="edge21" class="edge"><title>\\Alo\\Exception\\ProfilerException&#45;&gt;\\Alo\\Exception\\AbstractException</title>
<path fill="none" stroke="black" d="M391.914,-2545.92C384.78,-2543.16 377.653,-2540.16 371,-2537 336.312,-2520.51 299.235,-2497.2 273.236,-2479.82"/>
<polygon fill="none" stroke="black" points="275.11,-2476.86 264.863,-2474.17 271.195,-2482.66 275.11,-2476.86"/>
</g>
<!-- \\Alo\\Exception\\ControllerException -->
<g id="node7" class="node"><title>\\Alo\\Exception\\ControllerException</title>
<polygon fill="none" stroke="black" points="521.5,-2528 376.5,-2528 376.5,-2492 521.5,-2492 521.5,-2528"/>
<text text-anchor="middle" x="449" y="-2507.2" font-family="Courier,monospace" font-size="11.00">ControllerException</text>
</g>
<!-- \\Alo\\Exception\\ControllerException&#45;&gt;\\Alo\\Exception\\AbstractException -->
<g id="edge33" class="edge"><title>\\Alo\\Exception\\ControllerException&#45;&gt;\\Alo\\Exception\\AbstractException</title>
<path fill="none" stroke="black" d="M378.115,-2491.94C357.524,-2486.62 334.912,-2480.78 314.013,-2475.38"/>
<polygon fill="none" stroke="black" points="314.785,-2471.97 304.227,-2472.85 313.034,-2478.74 314.785,-2471.97"/>
</g>
<!-- \\Alo\\Exception\\FileException -->
<g id="node8" class="node"><title>\\Alo\\Exception\\FileException</title>
<polygon fill="none" stroke="black" points="501,-2474 397,-2474 397,-2438 501,-2438 501,-2474"/>
<text text-anchor="middle" x="449" y="-2453.2" font-family="Courier,monospace" font-size="11.00">FileException</text>
</g>
<!-- \\Alo\\Exception\\FileException&#45;&gt;\\Alo\\Exception\\AbstractException -->
<g id="edge41" class="edge"><title>\\Alo\\Exception\\FileException&#45;&gt;\\Alo\\Exception\\AbstractException</title>
<path fill="none" stroke="black" d="M396.873,-2456C372.119,-2456 341.904,-2456 314.559,-2456"/>
<polygon fill="none" stroke="black" points="314.237,-2452.5 304.237,-2456 314.237,-2459.5 314.237,-2452.5"/>
</g>
<!-- \\Alo\\Exception\\SFTPException -->
<g id="node9" class="node"><title>\\Alo\\Exception\\SFTPException</title>
<polygon fill="none" stroke="black" points="752,-2474 648,-2474 648,-2438 752,-2438 752,-2474"/>
<text text-anchor="middle" x="700" y="-2453.2" font-family="Courier,monospace" font-size="11.00">SFTPException</text>
</g>
<!-- \\Alo\\Exception\\SFTPException&#45;&gt;\\Alo\\Exception\\FileException -->
<g id="edge47" class="edge"><title>\\Alo\\Exception\\SFTPException&#45;&gt;\\Alo\\Exception\\FileException</title>
<path fill="none" stroke="black" d="M647.709,-2456C608.121,-2456 553.216,-2456 511.309,-2456"/>
<polygon fill="none" stroke="black" points="511.225,-2452.5 501.224,-2456 511.224,-2459.5 511.225,-2452.5"/>
</g>
<!-- \\Alo\\Exception\\CronException -->
<g id="node10" class="node"><title>\\Alo\\Exception\\CronException</title>
<polygon fill="none" stroke="black" points="501,-2420 397,-2420 397,-2384 501,-2384 501,-2420"/>
<text text-anchor="middle" x="449" y="-2399.2" font-family="Courier,monospace" font-size="11.00">CronException</text>
</g>
<!-- \\Alo\\Exception\\CronException&#45;&gt;\\Alo\\Exception\\AbstractException -->
<g id="edge51" class="edge"><title>\\Alo\\Exception\\CronException&#45;&gt;\\Alo\\Exception\\AbstractException</title>
<path fill="none" stroke="black" d="M396.873,-2415.21C372.01,-2421.63 341.638,-2429.48 314.198,-2436.57"/>
<polygon fill="none" stroke="black" points="313.043,-2433.25 304.237,-2439.14 314.794,-2440.03 313.043,-2433.25"/>
</g>
<!-- \\Alo\\Exception\\TesterException -->
<g id="node11" class="node"><title>\\Alo\\Exception\\TesterException</title>
<polygon fill="none" stroke="black" points="508,-2366 390,-2366 390,-2330 508,-2330 508,-2366"/>
<text text-anchor="middle" x="449" y="-2345.2" font-family="Courier,monospace" font-size="11.00">TesterException</text>
</g>
<!-- \\Alo\\Exception\\TesterException&#45;&gt;\\Alo\\Exception\\AbstractException -->
<g id="edge61" class="edge"><title>\\Alo\\Exception\\TesterException&#45;&gt;\\Alo\\Exception\\AbstractException</title>
<path fill="none" stroke="black" d="M389.728,-2365.7C383.243,-2368.47 376.868,-2371.56 371,-2375 339.3,-2393.56 338.312,-2411.3 305.232,-2432.69"/>
<polygon fill="none" stroke="black" points="303.362,-2429.73 296.625,-2437.91 306.991,-2435.72 303.362,-2429.73"/>
</g>
<!-- \\Alo\\Controller\\Router -->
<g id="node13" class="node"><title>\\Alo\\Controller\\Router</title>
<polygon fill="none" stroke="black" points="728.5,-1858 671.5,-1858 671.5,-1822 728.5,-1822 728.5,-1858"/>
<text text-anchor="middle" x="700" y="-1837.2" font-family="Courier,monospace" font-size="11.00">Router</text>
</g>
<!-- \\Alo\\Controller\\AbstractController -->
<g id="node14" class="node"><title>\\Alo\\Controller\\AbstractController</title>
<polygon fill="none" stroke="black" points="518.5,-1804 379.5,-1804 379.5,-1768 518.5,-1768 518.5,-1804"/>
<text text-anchor="start" x="415" y="-1789.7" font-family="Courier,monospace" font-size="11.00">«abstract»</text>
<text text-anchor="start" x="388" y="-1778.7" font-family="Courier,monospace" font-size="11.00">AbstractController</text>
</g>
<!-- \\Alo\\Controller\\Error -->
<g id="node15" class="node"><title>\\Alo\\Controller\\Error</title>
<polygon fill="none" stroke="black" points="727,-1804 673,-1804 673,-1768 727,-1768 727,-1804"/>
<text text-anchor="middle" x="700" y="-1783.2" font-family="Courier,monospace" font-size="11.00">Error</text>
</g>
<!-- \\Alo\\Controller\\Error&#45;&gt;\\Alo\\Controller\\AbstractController -->
<g id="edge67" class="edge"><title>\\Alo\\Controller\\Error&#45;&gt;\\Alo\\Controller\\AbstractController</title>
<path fill="none" stroke="black" d="M672.823,-1786C638.888,-1786 578.196,-1786 528.715,-1786"/>
<polygon fill="none" stroke="black" points="528.66,-1782.5 518.66,-1786 528.66,-1789.5 528.66,-1782.5"/>
</g>
<!-- \\Alo\\Session\\SQLSession -->
<g id="node17" class="node"><title>\\Alo\\Session\\SQLSession</title>
<polygon fill="none" stroke="black" points="742,-2286 658,-2286 658,-2250 742,-2250 742,-2286"/>
<text text-anchor="middle" x="700" y="-2265.2" font-family="Courier,monospace" font-size="11.00">SQLSession</text>
</g>
<!-- \\Alo\\Session\\AbstractSession -->
<g id="node19" class="node"><title>\\Alo\\Session\\AbstractSession</title>
<polygon fill="none" stroke="black" points="508.5,-2259 389.5,-2259 389.5,-2223 508.5,-2223 508.5,-2259"/>
<text text-anchor="start" x="415" y="-2244.7" font-family="Courier,monospace" font-size="11.00">«abstract»</text>
<text text-anchor="start" x="398" y="-2233.7" font-family="Courier,monospace" font-size="11.00">AbstractSession</text>
</g>
<!-- \\Alo\\Session\\SQLSession&#45;&gt;\\Alo\\Session\\AbstractSession -->
<g id="edge15" class="edge"><title>\\Alo\\Session\\SQLSession&#45;&gt;\\Alo\\Session\\AbstractSession</title>
<path fill="none" stroke="black" d="M657.883,-2263.54C620.207,-2259.46 563.677,-2253.33 519.073,-2248.49"/>
<polygon fill="none" stroke="black" points="519.2,-2244.98 508.881,-2247.38 518.446,-2251.94 519.2,-2244.98"/>
</g>
<!-- \\Alo\\Session\\MemcachedSession -->
<g id="node18" class="node"><title>\\Alo\\Session\\MemcachedSession</title>
<polygon fill="none" stroke="black" points="762.5,-2232 637.5,-2232 637.5,-2196 762.5,-2196 762.5,-2232"/>
<text text-anchor="middle" x="700" y="-2211.2" font-family="Courier,monospace" font-size="11.00">MemcachedSession</text>
</g>
<!-- \\Alo\\Session\\MemcachedSession&#45;&gt;\\Alo\\Session\\AbstractSession -->
<g id="edge37" class="edge"><title>\\Alo\\Session\\MemcachedSession&#45;&gt;\\Alo\\Session\\AbstractSession</title>
<path fill="none" stroke="black" d="M637.449,-2220.67C601.512,-2224.57 556.078,-2229.5 518.941,-2233.52"/>
<polygon fill="none" stroke="black" points="518.266,-2230.08 508.702,-2234.63 519.021,-2237.04 518.266,-2230.08"/>
</g>
<!-- \\Alo\\Db\\MySQL -->
<g id="node21" class="node"><title>\\Alo\\Db\\MySQL</title>
<polygon fill="none" stroke="black" points="727,-2152 673,-2152 673,-2116 727,-2116 727,-2152"/>
<text text-anchor="middle" x="700" y="-2131.2" font-family="Courier,monospace" font-size="11.00">MySQL</text>
</g>
<!-- \\Alo\\Db\\AbstractDb -->
<g id="node22" class="node"><title>\\Alo\\Db\\AbstractDb</title>
<polygon fill="none" stroke="black" points="491.5,-2152 406.5,-2152 406.5,-2116 491.5,-2116 491.5,-2152"/>
<text text-anchor="start" x="415" y="-2137.7" font-family="Courier,monospace" font-size="11.00">«abstract»</text>
<text text-anchor="start" x="415" y="-2126.7" font-family="Courier,monospace" font-size="11.00">AbstractDb</text>
</g>
<!-- \\Alo\\Db\\MySQL&#45;&gt;\\Alo\\Db\\AbstractDb -->
<g id="edge19" class="edge"><title>\\Alo\\Db\\MySQL&#45;&gt;\\Alo\\Db\\AbstractDb</title>
<path fill="none" stroke="black" d="M672.823,-2134C632.438,-2134 554.156,-2134 501.974,-2134"/>
<polygon fill="none" stroke="black" points="501.904,-2130.5 491.904,-2134 501.904,-2137.5 501.904,-2130.5"/>
</g>
<!-- \\Alo\\Test\\AbstractTester -->
<g id="node24" class="node"><title>\\Alo\\Test\\AbstractTester</title>
<polygon fill="none" stroke="black" points="505,-2045 393,-2045 393,-2009 505,-2009 505,-2045"/>
<text text-anchor="start" x="415" y="-2030.7" font-family="Courier,monospace" font-size="11.00">«abstract»</text>
<text text-anchor="start" x="401.5" y="-2019.7" font-family="Courier,monospace" font-size="11.00">AbstractTester</text>
</g>
<!-- \\Alo\\Test\\FunctionTester -->
<g id="node25" class="node"><title>\\Alo\\Test\\FunctionTester</title>
<polygon fill="none" stroke="black" points="755.5,-2072 644.5,-2072 644.5,-2036 755.5,-2036 755.5,-2072"/>
<text text-anchor="middle" x="700" y="-2051.2" font-family="Courier,monospace" font-size="11.00">FunctionTester</text>
</g>
<!-- \\Alo\\Test\\FunctionTester&#45;&gt;\\Alo\\Test\\AbstractTester -->
<g id="edge45" class="edge"><title>\\Alo\\Test\\FunctionTester&#45;&gt;\\Alo\\Test\\AbstractTester</title>
<path fill="none" stroke="black" d="M644.356,-2048.07C606.347,-2043.95 555.496,-2038.44 515.341,-2034.09"/>
<polygon fill="none" stroke="black" points="515.696,-2030.6 505.377,-2033 514.942,-2037.56 515.696,-2030.6"/>
</g>
<!-- \\Alo\\Test\\ClassTester -->
<g id="node26" class="node"><title>\\Alo\\Test\\ClassTester</title>
<polygon fill="none" stroke="black" points="745.5,-2018 654.5,-2018 654.5,-1982 745.5,-1982 745.5,-2018"/>
<text text-anchor="middle" x="700" y="-1997.2" font-family="Courier,monospace" font-size="11.00">ClassTester</text>
</g>
<!-- \\Alo\\Test\\ClassTester&#45;&gt;\\Alo\\Test\\AbstractTester -->
<g id="edge69" class="edge"><title>\\Alo\\Test\\ClassTester&#45;&gt;\\Alo\\Test\\AbstractTester</title>
<path fill="none" stroke="black" d="M654.484,-2004.83C615.681,-2009.03 558.901,-2015.19 515.014,-2019.95"/>
<polygon fill="none" stroke="black" points="514.572,-2016.48 505.008,-2021.04 515.327,-2023.44 514.572,-2016.48"/>
</g>
<!-- \\Alo\\Cache\\AbstractCache -->
<g id="node28" class="node"><title>\\Alo\\Cache\\AbstractCache</title>
<polygon fill="none" stroke="black" points="501.5,-1938 396.5,-1938 396.5,-1902 501.5,-1902 501.5,-1938"/>
<text text-anchor="start" x="415" y="-1923.7" font-family="Courier,monospace" font-size="11.00">«abstract»</text>
<text text-anchor="start" x="405" y="-1912.7" font-family="Courier,monospace" font-size="11.00">AbstractCache</text>
</g>
<!-- \\Alo\\Cache\\MemcachedWrapper -->
<g id="node29" class="node"><title>\\Alo\\Cache\\MemcachedWrapper</title>
<polygon fill="none" stroke="black" points="762.5,-1938 637.5,-1938 637.5,-1902 762.5,-1902 762.5,-1938"/>
<text text-anchor="middle" x="700" y="-1917.2" font-family="Courier,monospace" font-size="11.00">MemcachedWrapper</text>
</g>
<!-- \\Alo\\Cache\\MemcachedWrapper&#45;&gt;\\Alo\\Cache\\AbstractCache -->
<g id="edge75" class="edge"><title>\\Alo\\Cache\\MemcachedWrapper&#45;&gt;\\Alo\\Cache\\AbstractCache</title>
<path fill="none" stroke="black" d="M637.449,-1920C599.111,-1920 549.965,-1920 511.614,-1920"/>
<polygon fill="none" stroke="black" points="511.607,-1916.5 501.607,-1920 511.607,-1923.5 511.607,-1916.5"/>
</g>
<!-- \\Alo\\Validators\\Form -->
<g id="node31" class="node"><title>\\Alo\\Validators\\Form</title>
<polygon fill="none" stroke="black" points="727,-1724 673,-1724 673,-1688 727,-1688 727,-1724"/>
<text text-anchor="middle" x="700" y="-1703.2" font-family="Courier,monospace" font-size="11.00">Form</text>
</g>
<!-- \\Alo\\Statics\\Format -->
<g id="node33" class="node"><title>\\Alo\\Statics\\Format</title>
<polygon fill="none" stroke="black" points="728.5,-1644 671.5,-1644 671.5,-1608 728.5,-1608 728.5,-1644"/>
<text text-anchor="middle" x="700" y="-1623.2" font-family="Courier,monospace" font-size="11.00">Format</text>
</g>
<!-- \\Alo\\Statics\\Cookie -->
<g id="node34" class="node"><title>\\Alo\\Statics\\Cookie</title>
<polygon fill="none" stroke="black" points="728.5,-1590 671.5,-1590 671.5,-1554 728.5,-1554 728.5,-1590"/>
<text text-anchor="middle" x="700" y="-1569.2" font-family="Courier,monospace" font-size="11.00">Cookie</text>
</g>
<!-- \\Alo\\Cron -->
<g id="node35" class="node"><title>\\Alo\\Cron</title>
<polygon fill="none" stroke="black" points="727,-1536 673,-1536 673,-1500 727,-1500 727,-1536"/>
<text text-anchor="middle" x="700" y="-1515.2" font-family="Courier,monospace" font-size="11.00">Cron</text>
</g>
<!-- \\Alo\\cURL -->
<g id="node36" class="node"><title>\\Alo\\cURL</title>
<polygon fill="none" stroke="black" points="727,-1482 673,-1482 673,-1446 727,-1446 727,-1482"/>
<text text-anchor="middle" x="700" y="-1461.2" font-family="Courier,monospace" font-size="11.00">cURL</text>
</g>
<!-- \\Alo\\Profiler -->
<g id="node37" class="node"><title>\\Alo\\Profiler</title>
<polygon fill="none" stroke="black" points="735.5,-1428 664.5,-1428 664.5,-1392 735.5,-1392 735.5,-1428"/>
<text text-anchor="middle" x="700" y="-1407.2" font-family="Courier,monospace" font-size="11.00">Profiler</text>
</g>
<!-- \\Alo\\File -->
<g id="node38" class="node"><title>\\Alo\\File</title>
<polygon fill="none" stroke="black" points="727,-1374 673,-1374 673,-1338 727,-1338 727,-1374"/>
<text text-anchor="middle" x="700" y="-1353.2" font-family="Courier,monospace" font-size="11.00">File</text>
</g>
<!-- \\Alo\\Email -->
<g id="node39" class="node"><title>\\Alo\\Email</title>
<polygon fill="none" stroke="black" points="727,-1320 673,-1320 673,-1284 727,-1284 727,-1320"/>
<text text-anchor="middle" x="700" y="-1299.2" font-family="Courier,monospace" font-size="11.00">Email</text>
</g>
<!-- \\PHPMailer -->
<g id="node65" class="node"><title>\\PHPMailer</title>
<polygon fill="none" stroke="black" points="487.5,-2736 410.5,-2736 410.5,-2700 487.5,-2700 487.5,-2736"/>
<text text-anchor="middle" x="449" y="-2715.2" font-family="Courier,monospace" font-size="11.00">PHPMailer</text>
</g>
<!-- \\Alo\\Email&#45;&gt;\\PHPMailer -->
<g id="edge29" class="edge"><title>\\Alo\\Email&#45;&gt;\\PHPMailer</title>
<path fill="none" stroke="black" d="M672.905,-1300.73C648.427,-1301.1 612.848,-1306 594,-1329 405.147,-1559.5 667.148,-2407.76 522,-2668 515.977,-2678.8 506.525,-2687.78 496.426,-2695.01"/>
<polygon fill="none" stroke="black" points="494.269,-2692.24 487.853,-2700.67 498.126,-2698.08 494.269,-2692.24"/>
</g>
<!-- \\Alo\\Handler -->
<g id="node40" class="node"><title>\\Alo\\Handler</title>
<polygon fill="none" stroke="black" points="742.5,-1266 657.5,-1266 657.5,-1230 742.5,-1230 742.5,-1266"/>
<text text-anchor="start" x="666" y="-1251.7" font-family="Courier,monospace" font-size="11.00">«abstract»</text>
<text text-anchor="start" x="676" y="-1240.7" font-family="Courier,monospace" font-size="11.00">Handler</text>
</g>
<!-- \\Alo\\SFTP -->
<g id="node41" class="node"><title>\\Alo\\SFTP</title>
<polygon fill="none" stroke="black" points="727,-1212 673,-1212 673,-1176 727,-1176 727,-1212"/>
<text text-anchor="middle" x="700" y="-1191.2" font-family="Courier,monospace" font-size="11.00">SFTP</text>
</g>
<!-- \\Controller\\Sample -->
<g id="node43" class="node"><title>\\Controller\\Sample</title>
<polygon fill="none" stroke="black" points="728.5,-1132 671.5,-1132 671.5,-1096 728.5,-1096 728.5,-1132"/>
<text text-anchor="middle" x="700" y="-1111.2" font-family="Courier,monospace" font-size="11.00">Sample</text>
</g>
<!-- \\Controller\\Sample&#45;&gt;\\Alo\\Controller\\AbstractController -->
<g id="edge43" class="edge"><title>\\Controller\\Sample&#45;&gt;\\Alo\\Controller\\AbstractController</title>
<path fill="none" stroke="black" d="M671.391,-1119.34C646.898,-1125.61 612.257,-1138.58 594,-1164 439.301,-1379.37 687.914,-1553.56 524.73,-1759.97"/>
<polygon fill="none" stroke="black" points="521.832,-1757.99 518.229,-1767.95 527.259,-1762.41 521.832,-1757.99"/>
</g>
<!-- \\Kint_Parsers_Timestamp -->
<g id="node44" class="node"><title>\\Kint_Parsers_Timestamp</title>
<polygon fill="none" stroke="black" points="782.5,-970 617.5,-970 617.5,-934 782.5,-934 782.5,-970"/>
<text text-anchor="middle" x="700" y="-949.2" font-family="Courier,monospace" font-size="11.00">Kint_Parsers_Timestamp</text>
</g>
<!-- \\kintParser -->
<g id="node64" class="node"><title>\\kintParser</title>
<polygon fill="none" stroke="black" points="491.5,-727 406.5,-727 406.5,-691 491.5,-691 491.5,-727"/>
<text text-anchor="start" x="415" y="-712.7" font-family="Courier,monospace" font-size="11.00">«abstract»</text>
<text text-anchor="start" x="415" y="-701.7" font-family="Courier,monospace" font-size="11.00">kintParser</text>
</g>
<!-- \\Kint_Parsers_Timestamp&#45;&gt;\\kintParser -->
<g id="edge23" class="edge"><title>\\Kint_Parsers_Timestamp&#45;&gt;\\kintParser</title>
<path fill="none" stroke="black" d="M617.474,-937.527C609.146,-934.182 601.137,-930.066 594,-925 525.005,-876.031 479.765,-782.73 460.542,-736.446"/>
<polygon fill="none" stroke="black" points="463.734,-735.005 456.731,-727.054 457.247,-737.636 463.734,-735.005"/>
</g>
<!-- \\Kint_Parsers_Microtime -->
<g id="node45" class="node"><title>\\Kint_Parsers_Microtime</title>
<polygon fill="none" stroke="black" points="782.5,-916 617.5,-916 617.5,-880 782.5,-880 782.5,-916"/>
<text text-anchor="middle" x="700" y="-895.2" font-family="Courier,monospace" font-size="11.00">Kint_Parsers_Microtime</text>
</g>
<!-- \\Kint_Parsers_Microtime&#45;&gt;\\kintParser -->
<g id="edge25" class="edge"><title>\\Kint_Parsers_Microtime&#45;&gt;\\kintParser</title>
<path fill="none" stroke="black" d="M617.328,-882.202C609.163,-879.107 601.23,-875.412 594,-871 537.145,-836.304 490.072,-772.143 466.433,-735.848"/>
<polygon fill="none" stroke="black" points="469.274,-733.793 460.936,-727.256 463.377,-737.566 469.274,-733.793"/>
</g>
<!-- \\Kint_Parsers_Json -->
<g id="node46" class="node"><title>\\Kint_Parsers_Json</title>
<polygon fill="none" stroke="black" points="765.5,-808 634.5,-808 634.5,-772 765.5,-772 765.5,-808"/>
<text text-anchor="middle" x="700" y="-787.2" font-family="Courier,monospace" font-size="11.00">Kint_Parsers_Json</text>
</g>
<!-- \\Kint_Parsers_Json&#45;&gt;\\kintParser -->
<g id="edge27" class="edge"><title>\\Kint_Parsers_Json&#45;&gt;\\kintParser</title>
<path fill="none" stroke="black" d="M634.277,-774.518C620.886,-770.99 606.926,-767.073 594,-763 562.791,-753.167 528.463,-740.373 501.153,-729.707"/>
<polygon fill="none" stroke="black" points="502.39,-726.433 491.803,-726.031 499.829,-732.947 502.39,-726.433"/>
</g>
<!-- \\Kint_Parsers_ClassMethods -->
<g id="node47" class="node"><title>\\Kint_Parsers_ClassMethods</title>
<polygon fill="none" stroke="black" points="792.5,-646 607.5,-646 607.5,-610 792.5,-610 792.5,-646"/>
<text text-anchor="middle" x="700" y="-625.2" font-family="Courier,monospace" font-size="11.00">Kint_Parsers_ClassMethods</text>
</g>
<!-- \\Kint_Parsers_ClassMethods&#45;&gt;\\kintParser -->
<g id="edge31" class="edge"><title>\\Kint_Parsers_ClassMethods&#45;&gt;\\kintParser</title>
<path fill="none" stroke="black" d="M624.718,-646.043C614.351,-648.869 603.874,-651.889 594,-655 562.791,-664.833 528.463,-677.627 501.153,-688.293"/>
<polygon fill="none" stroke="black" points="499.829,-685.053 491.803,-691.969 502.39,-691.567 499.829,-685.053"/>
</g>
<!-- \\POP3 -->
<g id="node48" class="node"><title>\\POP3</title>
<polygon fill="none" stroke="black" points="727,-862 673,-862 673,-826 727,-826 727,-862"/>
<text text-anchor="middle" x="700" y="-841.2" font-family="Courier,monospace" font-size="11.00">POP3</text>
</g>
<!-- \\Kint_Decorators_Concise -->
<g id="node49" class="node"><title>\\Kint_Decorators_Concise</title>
<polygon fill="none" stroke="black" points="786,-322 614,-322 614,-286 786,-286 786,-322"/>
<text text-anchor="middle" x="700" y="-301.2" font-family="Courier,monospace" font-size="11.00">Kint_Decorators_Concise</text>
</g>
<!-- \\Kint -->
<g id="node59" class="node"><title>\\Kint</title>
<polygon fill="none" stroke="black" points="476,-322 422,-322 422,-286 476,-286 476,-322"/>
<text text-anchor="middle" x="449" y="-301.2" font-family="Courier,monospace" font-size="11.00">Kint</text>
</g>
<!-- \\Kint_Decorators_Concise&#45;&gt;\\Kint -->
<g id="edge35" class="edge"><title>\\Kint_Decorators_Concise&#45;&gt;\\Kint</title>
<path fill="none" stroke="black" d="M613.657,-304C570.211,-304 519.683,-304 486.393,-304"/>
<polygon fill="none" stroke="black" points="486.222,-300.5 476.222,-304 486.222,-307.5 486.222,-300.5"/>
</g>
<!-- \\Log -->
<g id="node50" class="node"><title>\\Log</title>
<polygon fill="none" stroke="black" points="742.5,-754 657.5,-754 657.5,-718 742.5,-718 742.5,-754"/>
<text text-anchor="start" x="666" y="-739.7" font-family="Courier,monospace" font-size="11.00">«abstract»</text>
<text text-anchor="start" x="689.5" y="-728.7" font-family="Courier,monospace" font-size="11.00">Log</text>
</g>
<!-- \\ntlm_sasl_client_class -->
<g id="node51" class="node"><title>\\ntlm_sasl_client_class</title>
<polygon fill="none" stroke="black" points="782.5,-700 617.5,-700 617.5,-664 782.5,-664 782.5,-700"/>
<text text-anchor="middle" x="700" y="-679.2" font-family="Courier,monospace" font-size="11.00">ntlm_sasl_client_class</text>
</g>
<!-- \\Kint_Parsers_ClassStatics -->
<g id="node52" class="node"><title>\\Kint_Parsers_ClassStatics</title>
<polygon fill="none" stroke="black" points="792.5,-592 607.5,-592 607.5,-556 792.5,-556 792.5,-592"/>
<text text-anchor="middle" x="700" y="-571.2" font-family="Courier,monospace" font-size="11.00">Kint_Parsers_ClassStatics</text>
</g>
<!-- \\Kint_Parsers_ClassStatics&#45;&gt;\\kintParser -->
<g id="edge39" class="edge"><title>\\Kint_Parsers_ClassStatics&#45;&gt;\\kintParser</title>
<path fill="none" stroke="black" d="M615.938,-592.077C608.379,-594.697 600.957,-597.66 594,-601 548.873,-622.665 503.839,-659.504 476.45,-684.044"/>
<polygon fill="none" stroke="black" points="473.923,-681.611 468.872,-690.925 478.629,-686.794 473.923,-681.611"/>
</g>
<!-- \\Kint_Parsers_ArrayObject -->
<g id="node53" class="node"><title>\\Kint_Parsers_ArrayObject</title>
<polygon fill="none" stroke="black" points="789.5,-538 610.5,-538 610.5,-502 789.5,-502 789.5,-538"/>
<text text-anchor="middle" x="700" y="-517.2" font-family="Courier,monospace" font-size="11.00">Kint_Parsers_ArrayObject</text>
</g>
<!-- \\Kint_Parsers_ArrayObject&#45;&gt;\\kintParser -->
<g id="edge49" class="edge"><title>\\Kint_Parsers_ArrayObject&#45;&gt;\\kintParser</title>
<path fill="none" stroke="black" d="M611.656,-538.064C605.499,-540.656 599.543,-543.617 594,-547 537.145,-581.696 490.072,-645.857 466.433,-682.152"/>
<polygon fill="none" stroke="black" points="463.377,-680.434 460.936,-690.744 469.274,-684.207 463.377,-680.434"/>
</g>
<!-- \\Kint_Decorators_Rich -->
<g id="node54" class="node"><title>\\Kint_Decorators_Rich</title>
<polygon fill="none" stroke="black" points="776,-214 624,-214 624,-178 776,-178 776,-214"/>
<text text-anchor="middle" x="700" y="-193.2" font-family="Courier,monospace" font-size="11.00">Kint_Decorators_Rich</text>
</g>
<!-- \\Kint_Decorators_Rich&#45;&gt;\\Kint -->
<g id="edge53" class="edge"><title>\\Kint_Decorators_Rich&#45;&gt;\\Kint</title>
<path fill="none" stroke="black" d="M623.812,-211.053C613.531,-214.334 603.318,-218.278 594,-223 557.097,-241.703 558.474,-262.474 522,-282 510.949,-287.916 498.072,-292.487 486.29,-295.891"/>
<polygon fill="none" stroke="black" points="485.035,-292.604 476.29,-298.586 486.856,-299.363 485.035,-292.604"/>
</g>
<!-- \\Kint_Parsers_Color -->
<g id="node55" class="node"><title>\\Kint_Parsers_Color</title>
<polygon fill="none" stroke="black" points="769,-484 631,-484 631,-448 769,-448 769,-484"/>
<text text-anchor="middle" x="700" y="-463.2" font-family="Courier,monospace" font-size="11.00">Kint_Parsers_Color</text>
</g>
<!-- \\Kint_Parsers_Color&#45;&gt;\\kintParser -->
<g id="edge55" class="edge"><title>\\Kint_Parsers_Color&#45;&gt;\\kintParser</title>
<path fill="none" stroke="black" d="M630.823,-475.803C617.827,-479.744 604.898,-485.265 594,-493 525.005,-541.969 479.765,-635.27 460.542,-681.554"/>
<polygon fill="none" stroke="black" points="457.247,-680.364 456.731,-690.946 463.734,-682.995 457.247,-680.364"/>
</g>
<!-- \\Kint_Parsers_SplFileInfo -->
<g id="node56" class="node"><title>\\Kint_Parsers_SplFileInfo</title>
<polygon fill="none" stroke="black" points="789.5,-430 610.5,-430 610.5,-394 789.5,-394 789.5,-430"/>
<text text-anchor="middle" x="700" y="-409.2" font-family="Courier,monospace" font-size="11.00">Kint_Parsers_SplFileInfo</text>
</g>
<!-- \\Kint_Parsers_SplFileInfo&#45;&gt;\\kintParser -->
<g id="edge57" class="edge"><title>\\Kint_Parsers_SplFileInfo&#45;&gt;\\kintParser</title>
<path fill="none" stroke="black" d="M610.414,-428.774C604.578,-431.664 599.031,-435.045 594,-439 512.588,-503.006 471.665,-626.091 456.774,-681.168"/>
<polygon fill="none" stroke="black" points="453.364,-680.375 454.216,-690.935 460.136,-682.148 453.364,-680.375"/>
</g>
<!-- \\Kint_Parsers_Xml -->
<g id="node57" class="node"><title>\\Kint_Parsers_Xml</title>
<polygon fill="none" stroke="black" points="762.5,-1078 637.5,-1078 637.5,-1042 762.5,-1042 762.5,-1078"/>
<text text-anchor="middle" x="700" y="-1057.2" font-family="Courier,monospace" font-size="11.00">Kint_Parsers_Xml</text>
</g>
<!-- \\Kint_Parsers_Xml&#45;&gt;\\kintParser -->
<g id="edge59" class="edge"><title>\\Kint_Parsers_Xml&#45;&gt;\\kintParser</title>
<path fill="none" stroke="black" d="M637.39,-1053.78C621.894,-1049.78 606.215,-1043.33 594,-1033 500.04,-953.516 465.012,-800.562 454.175,-737.378"/>
<polygon fill="none" stroke="black" points="457.602,-736.647 452.531,-727.345 450.694,-737.779 457.602,-736.647"/>
</g>
<!-- \\Kint_Parsers_SplObjectStorage -->
<g id="node58" class="node"><title>\\Kint_Parsers_SplObjectStorage</title>
<polygon fill="none" stroke="black" points="806,-1024 594,-1024 594,-988 806,-988 806,-1024"/>
<text text-anchor="middle" x="700" y="-1003.2" font-family="Courier,monospace" font-size="11.00">Kint_Parsers_SplObjectStorage</text>
</g>
<!-- \\Kint_Parsers_SplObjectStorage&#45;&gt;\\kintParser -->
<g id="edge63" class="edge"><title>\\Kint_Parsers_SplObjectStorage&#45;&gt;\\kintParser</title>
<path fill="none" stroke="black" d="M607.859,-987.919C602.957,-985.329 598.291,-982.374 594,-979 512.588,-914.994 471.665,-791.909 456.774,-736.832"/>
<polygon fill="none" stroke="black" points="460.136,-735.852 454.216,-727.065 453.364,-737.625 460.136,-735.852"/>
</g>
<!-- \\SMTP -->
<g id="node60" class="node"><title>\\SMTP</title>
<polygon fill="none" stroke="black" points="727,-268 673,-268 673,-232 727,-232 727,-268"/>
<text text-anchor="middle" x="700" y="-247.2" font-family="Courier,monospace" font-size="11.00">SMTP</text>
</g>
<!-- \\Kint_Decorators_Plain -->
<g id="node61" class="node"><title>\\Kint_Decorators_Plain</title>
<polygon fill="none" stroke="black" points="779,-376 621,-376 621,-340 779,-340 779,-376"/>
<text text-anchor="middle" x="700" y="-355.2" font-family="Courier,monospace" font-size="11.00">Kint_Decorators_Plain</text>
</g>
<!-- \\Kint_Decorators_Plain&#45;&gt;\\Kint -->
<g id="edge65" class="edge"><title>\\Kint_Decorators_Plain&#45;&gt;\\Kint</title>
<path fill="none" stroke="black" d="M620.898,-341.062C575.724,-331.265 521.04,-319.406 485.9,-311.785"/>
<polygon fill="none" stroke="black" points="486.607,-308.358 476.093,-309.659 485.124,-315.199 486.607,-308.358"/>
</g>
<!-- \\EasyPeasyICS -->
<g id="node62" class="node"><title>\\EasyPeasyICS</title>
<polygon fill="none" stroke="black" points="749,-160 651,-160 651,-124 749,-124 749,-160"/>
<text text-anchor="middle" x="700" y="-139.2" font-family="Courier,monospace" font-size="11.00">EasyPeasyICS</text>
</g>
<!-- \\kintVariableData -->
<g id="node63" class="node"><title>\\kintVariableData</title>
<polygon fill="none" stroke="black" points="300.5,-727 175.5,-727 175.5,-691 300.5,-691 300.5,-727"/>
<text text-anchor="middle" x="238" y="-706.2" font-family="Courier,monospace" font-size="11.00">kintVariableData</text>
</g>
<!-- \\kintParser&#45;&gt;\\kintVariableData -->
<g id="edge71" class="edge"><title>\\kintParser&#45;&gt;\\kintVariableData</title>
<path fill="none" stroke="black" d="M406.458,-709C379.174,-709 342.761,-709 310.859,-709"/>
<polygon fill="none" stroke="black" points="310.677,-705.5 300.677,-709 310.677,-712.5 310.677,-705.5"/>
</g>
<!-- \\phpmailerException -->
<g id="node66" class="node"><title>\\phpmailerException</title>
<polygon fill="none" stroke="black" points="769,-106 631,-106 631,-70 769,-70 769,-106"/>
<text text-anchor="middle" x="700" y="-85.2" font-family="Courier,monospace" font-size="11.00">phpmailerException</text>
</g>
<!-- \\phpmailerException&#45;&gt;\\Exception -->
<g id="edge73" class="edge"><title>\\phpmailerException&#45;&gt;\\Exception</title>
<path fill="none" stroke="black" d="M630.747,-101.557C618.228,-105.154 605.495,-109.589 594,-115 483.164,-167.176 452.046,-185.138 371,-277 235.057,-431.086 214.158,-487.459 148,-682 71.7556,-906.199 55.2243,-1195.61 51.8316,-1285.86"/>
<polygon fill="none" stroke="black" points="48.3336,-1285.75 51.4798,-1295.86 55.3292,-1285.99 48.3336,-1285.75"/>
</g>
<!-- \\Alo -->
<g id="node67" class="node"><title>\\Alo</title>
<polygon fill="none" stroke="black" points="727,-52 673,-52 673,-16 727,-16 727,-52"/>
<text text-anchor="middle" x="700" y="-31.2" font-family="Courier,monospace" font-size="11.00">Alo</text>
</g>
</g>
</svg>
